<?xml version="1.0" encoding="UTF-8"?>
<svg width="32px" height="32px" viewBox="0 0 32 32" version="1.1" xmlns="http://www.w3.org/2000/svg" xmlns:xlink="http://www.w3.org/1999/xlink">
    <title>favicon-32</title>
    <g id="favicon-32" stroke="none" stroke-width="1" fill="none" fill-rule="evenodd">
        <g id="32">
            <rect id="Rectangle" fill="#F7E296" fill-rule="nonzero" x="0" y="0" width="32" height="32"></rect>
            <path d="M7,26.9969 L7,5.00306 L16.0304,5.00306 C17.4861,4.96826 18.9332,5.23104 20.2797,5.77467 C21.6262,6.31831 22.8426,7.1309 23.8516,8.16075 C24.8857,9.19322 25.6971,10.4195 26.2374,11.7664 C26.7776,13.1133 27.0357,14.5531 26.996,16.0000044 C27.0357,17.4469 26.7776,18.8867 26.2374,20.2336 C25.6971,21.5805 24.8857,22.8068 23.8516,23.8392 C22.8427,24.8692 21.6263,25.6818 20.2798,26.2255 C18.9332,26.7691 17.4861,27.0318 16.0304,26.9969 L7,26.9969 Z M12,21.9972 L12,10.0028 L15.9782,10.0028 C16.7701,9.97274 17.5599,10.1868 18.2971,10.4645 C19.0342,10.7423 19.7024,11.1637 20.259,11.7019 C20.8177,12.2783 21.2505,12.955 21.5319,13.6927 C21.8134,14.4303 22.0351,15.2141 21.9954,15.9981 C22.0351,16.7822 21.8134,17.5659 21.532,18.3036 C21.2505,19.0412 20.8178,19.718 20.259,20.2943 C19.7025,20.8326 19.0343,21.2542 18.2972,21.5319 C17.56,21.8097 16.7702,22.0274 15.9782,21.9972 L12.1661,21.9972 L12,21.9972 Z" id="Shape" fill="#000000"></path>
        </g>
    </g>
</svg>