<?xml version="1.0" encoding="UTF-8"?>
<svg width="27px" height="34px" viewBox="0 0 27 34" version="1.1" xmlns="http://www.w3.org/2000/svg" xmlns:xlink="http://www.w3.org/1999/xlink">
    <title>html-academy-footer-logo</title>
    <g id="html-academy-footer-logo" stroke="none" stroke-width="1" fill="none" fill-rule="evenodd">
        <path d="M13.62,0.0169551 L13.472,0 L0,1.40827 L0,26.0042 L13.473,34 L26.903,26.0311 L26.945,26.0062 L26.945,1.40827 L13.62,0.0169551 Z M25.019,12.095 L13.495,5.31992 L13.494,5.21619 L13.407,5.26606 L13.319,5.21021 L13.319,5.31892 L1.925,12.086 L1.925,3.13869 L13.473,1.92989 L25.02,3.13869 L25.02,12.095 L25.019,12.095 Z M13.405,6.76908 L24.923,13.4644 L20.444,16.0974 L13.351,11.8875 L13.337,13.2988 L19.241,16.8025 L18.381,17.3082 L13.351,14.3241 L13.337,15.7353 L17.164,18.0043 L16.382,18.526 L13.351,16.7437 L13.337,18.1529 L15.19,19.2411 L13.39,20.3192 L2.034,13.586 L13.405,6.76908 Z M1.925,15.0871 L13.336,21.8601 L13.352,22.9014 L5.41,18.1859 L5.395,19.5981 L13.374,24.3805 L13.392,25.4536 L5.419,20.7261 L5.406,22.1364 L13.427,26.9457 L13.473,26.9706 L21.616,22.1115 L21.605,16.9481 L25.02,14.9175 L25.02,24.9121 L13.472,31.7659 L1.925,24.9131 L1.925,15.0871 Z" id="Shape" fill="#F0C52E" fill-rule="nonzero"></path>
    </g>
</svg>