<?xml version="1.0" encoding="UTF-8"?>
<svg width="12px" height="12px" viewBox="0 0 12 12" version="1.1" xmlns="http://www.w3.org/2000/svg" xmlns:xlink="http://www.w3.org/1999/xlink">
    <title>cart-ico-black</title>
    <g id="cart-ico-black" stroke="none" stroke-width="1" fill="none" fill-rule="evenodd">
        <path d="M3.29725187,3.39307 L3.29725187,4.41871 C3.29725187,4.88999 3.70140187,5.27341 4.19815187,5.27341 C4.69491187,5.27341 5.09905187,4.88999 5.09905187,4.41871 L5.09905187,4.41871 L5.09905187,3.39307 L6.90085187,3.39307 L6.90085187,4.41871 C6.90085187,4.88999 7.30500187,5.27341 7.80176187,5.27341 C8.29851187,5.27341 8.70266187,4.88999 8.70266187,4.41871 L8.70266187,4.41871 L8.70266187,3.39307 L10.6341919,3.39307 C10.7383319,3.39307 10.8377019,3.43982 10.9070719,3.52161 C10.9765319,3.60341 11.0094119,3.71247 10.9976119,3.82127 L10.9976119,3.82127 L10.3494119,9.78443 C10.3372519,10.45683 9.81320187,10.9999 9.17076187,10.9999 L9.17076187,10.9999 L2.82923187,10.9999 C2.18671187,10.9999 1.66265887,10.45683 1.65058687,9.78452 L1.65058687,9.78452 L1.00238837,3.82136 C0.990496468,3.71247 1.02337937,3.60341 1.09283877,3.52161 C1.16220787,3.43982 1.26157787,3.39307 1.36581187,3.39307 L1.36581187,3.39307 L3.29725187,3.39307 Z M6.54059187,1 C7.48023187,1 8.16221187,1.647009 8.16221187,2.53846 L8.16221187,2.53846 L8.16221187,4.4188 C8.16221187,4.60735 8.00050187,4.76068 7.80185187,4.76068 C7.60321187,4.76068 7.44149187,4.60735 7.44149187,4.4188 L7.44149187,4.4188 L7.44149187,2.53846 C7.44149187,2.01923 7.08780187,1.683761 6.54059187,1.683761 L6.54059187,1.683761 L5.63969187,1.683761 C5.11978187,1.683761 4.55861187,2.01051 4.55861187,2.53846 L4.55861187,2.53846 L4.55861187,4.4188 C4.55861187,4.60735 4.39699187,4.76068 4.19825187,4.76068 C3.99951187,4.76068 3.83789187,4.60735 3.83789187,4.4188 L3.83789187,4.4188 L3.83789187,2.53846 C3.83789187,1.690171 4.64618187,1 5.63969187,1 L5.63969187,1 Z" id="Combined-Shape" fill="#000000" fill-rule="nonzero"></path>
    </g>
</svg>