<?xml version="1.0" encoding="UTF-8"?>
<svg width="136px" height="164px" viewBox="0 0 136 164" version="1.1" xmlns="http://www.w3.org/2000/svg" xmlns:xlink="http://www.w3.org/1999/xlink">
    <title>delivery-man-ico</title>
    <g id="delivery-man-ico" stroke="none" stroke-width="1" fill="none" fill-rule="evenodd">
        <g id="delivery-2" fill-rule="nonzero">
            <path d="M90.9108859,38.8182178 C98.8382284,38.8182178 105.499418,33.4084418 107.407774,26.0805478 L112.74434,26.875127 C112.848787,26.8907452 112.95421,26.8985543 113.056705,26.8985543 C114.08263,26.8985543 114.98068,26.1469254 115.136863,25.102454 C115.308663,23.9525594 114.513108,22.8807561 113.36419,22.7099313 L107.95539,21.9046146 C107.957342,21.8597121 107.959294,21.8157857 107.959294,21.7699071 C107.959294,21.5922493 107.953437,21.4165439 107.945628,21.2408384 C107.945628,21.2408384 107.505389,14.8783483 106.897252,12.2242196 C106.291069,9.57009097 104.422734,9.00685734 104.422734,9.00685734 C94.885734,6.84763241 85.122367,6.62702444 82.5814708,6.62702444 C80.0405745,6.62702444 79.498816,7.92724488 79.498816,7.92724488 L76.4239704,12.8040477 L76.4142089,12.8011192 C76.3400222,12.9202085 76.2717899,13.0402739 76.2005316,13.1603393 L76.1740781,13.2023134 C74.7079137,15.7207584 73.8635513,18.6452782 73.8635513,21.7699071 C73.8625751,31.1857677 81.4960014,38.8182178 90.9108859,38.8182178 Z" id="Path" fill="#FFFFFF"></path>
            <path d="M128.396768,80.2328411 L128.396768,80.2308889 L102.292793,78.1146142 L93.2672914,57.5063154 C93.2672914,57.5063154 92.8172902,54.798499 87.4026335,49.2325403 C81.9860245,43.6665817 71.0044329,45.9234208 71.0044329,45.9234208 C71.0044329,45.9234208 47.6883178,50.285797 40.016822,52.0906826 C32.34435,53.8965443 32.0436984,61.7183659 32.0436984,61.7183659 L31.426777,66.1295492 L16.6109018,63.2587171 C16.4244588,63.2225999 16.2389919,63.2050293 16.0564534,63.2050293 C14.6830224,63.2050293 13.4491796,64.1811708 13.1787884,65.576077 L5.94465275,102.905679 C5.63814432,104.487028 6.68066341,106.031284 8.26298874,106.337792 L58.2374786,116.024044 C58.3497349,116.045519 58.4619912,116.047472 58.5752236,116.056257 L58.5771759,116.056257 C57.8665449,116.157776 57.3169772,116.022092 57.3169772,116.022092 L48.1412474,114.217206 L45.1327794,130.914106 L22.1348864,150.791275 C20.4744697,152.119804 19.4094994,154.161892 19.4094994,156.453872 C19.4094994,160.459956 22.6561459,163.706603 26.6612544,163.706603 C28.6477022,163.706603 30.446731,162.908119 31.7567128,161.612779 C31.7567128,161.612779 58.8202351,140.08886 60.6260968,138.584626 C62.4319585,137.081368 63.3329371,134.823553 63.3329371,134.823553 C63.3329371,134.823553 67.7656931,121.208332 68.9741563,118.352142 C69.8018266,116.395954 73.7883884,117.298885 73.7883884,117.298885 L96.1273859,125.723962 L103.560801,154.092585 C103.640844,154.707555 103.797027,155.297144 104.022516,155.853545 L104.024468,155.853545 C105.096271,158.516459 107.704521,160.396507 110.749107,160.396507 C114.755191,160.396507 118.001838,157.148884 118.001838,153.143776 C118.001838,152.559067 117.931556,151.992905 117.799776,151.449194 C116.977865,146.602652 113.305621,125.048472 112.371454,120.382516 C111.319173,115.117209 107.860704,113.613951 107.860704,113.613951 C107.860704,113.613951 87.1001272,102.331708 85.7470975,101.579103 C84.3931893,100.827474 84.694817,98.8712864 84.694817,98.8712864 L88.531053,84.882203 L91.2378933,90.5984874 C91.2378933,90.5984874 92.818364,93.7943746 95.2244551,93.9085831 L127.785704,94.7090191 C131.791788,94.7090191 135.038435,91.4623726 135.038435,87.4553119 C135.038435,83.6590977 132.116843,80.5452064 128.396768,80.2328411 Z M58.6699093,65.328137 L56.9235922,71.0678489 L66.5854405,72.9410644 L46.8537168,69.1175182 L47.3886423,66.6810691 L58.6699093,65.328137 Z M56.4745671,109.716218 L12.251454,101.14472 L18.371861,69.5636149 L30.6146273,71.9366148 L29.0352304,83.2276432 L28.4104999,87.5285225 C28.4056192,87.5539022 28.4026907,87.5831864 28.3987862,87.6085661 L28.3812156,87.7325361 L28.3831679,87.7325361 C28.3441223,88.0370922 28.321671,88.346529 28.321671,88.6608466 C28.321671,92.6669312 31.5692937,95.9126016 35.5744021,95.9126016 C39.5795106,95.9126016 42.8261571,92.6669312 42.8261571,88.6608466 C42.8261571,88.3504336 42.8056581,88.0458775 42.7666125,87.746202 L45.5983989,74.8386834 L62.5959503,78.1321847 L56.4745671,109.716218 Z" id="Shape" fill="#FFFFFF"></path>
            <path d="M24.4523438,17.5783556 L61.5720755,17.5783556 C62.6458311,17.5783556 63.5244561,16.7037328 63.5244561,15.6358341 C63.5244561,14.5679353 62.6458311,13.6933125 61.5720755,13.6933125 L24.4523438,13.6933125 C23.3785882,13.6933125 22.5000609,14.5679353 22.5000609,15.6358341 C22.5000609,16.7037328 23.3785882,17.5783556 24.4523438,17.5783556 Z" id="Path" fill="#FFFFFF"></path>
            <path d="M37.171272,23.4517988 C36.0975163,23.4517988 35.218989,24.3264216 35.218989,25.3943203 C35.218989,26.4622191 36.0975163,27.3368419 37.171272,27.3368419 L59.582504,27.3368419 C60.6562596,27.3368419 61.5347869,26.4622191 61.5347869,25.3943203 C61.5347869,24.3254454 60.6562596,23.4517988 59.582504,23.4517988 L37.171272,23.4517988 Z" id="Path" fill="#FFFFFF"></path>
            <path d="M85.0200674,32.9272041 C92.9473123,32.9272041 99.608404,27.517428 101.516761,20.189534 L106.853326,20.9841132 C106.957773,20.9997314 107.063196,21.0075406 107.165691,21.0075406 C108.191616,21.0075406 109.089666,20.2559116 109.245849,19.2114403 C109.41765,18.0615456 108.622094,16.9897423 107.473176,16.8189175 L102.064376,16.0136008 C102.066328,15.9686983 102.068281,15.9247719 102.068281,15.8788933 C102.068281,15.7012355 102.062424,15.5255301 102.054615,15.3498246 C102.054615,15.3498246 101.614375,8.9873638 101.006239,6.33323514 C100.400055,3.67910648 98.53172,3.11587286 98.53172,3.11587286 C88.9949154,0.956646363 79.2315485,0.736038 76.6896761,0.736038 C74.1478037,0.736038 73.6070213,2.03626039 73.6070213,2.03626039 L70.5321757,6.91306318 L70.5224143,6.91013475 C70.4482275,7.02824787 70.3798976,7.14928941 70.3086393,7.26935481 L70.2822835,7.3113289 C68.816119,9.82977389 67.9717566,12.7542644 67.9717566,15.8788933 C67.9717566,25.2947539 75.6051829,32.9272041 85.0200674,32.9272041 Z" id="Path" fill="#3A3A3A"></path>
            <path d="M122.505754,71.2983491 L122.505754,71.2963968 L96.4016817,69.1801221 L87.3762777,48.5718234 C87.3762777,48.5718234 86.9262764,45.864007 81.5116197,40.2980483 C76.0950107,34.7320896 65.1134191,36.9889287 65.1134191,36.9889287 C65.1134191,36.9889287 41.797304,41.351305 34.1258082,43.1552144 C26.4533362,44.9610761 26.1526847,52.7828977 26.1526847,52.7828977 L23.1442166,74.2931511 L22.5194861,78.5940305 C22.5146054,78.6194101 22.511677,78.6486944 22.5077724,78.6740741 L22.4902019,78.798044 L22.4921541,78.798044 C22.4531085,79.1026002 22.4306572,79.412037 22.4306572,79.7263546 C22.4306572,83.7324392 25.6782799,86.9781095 29.6833883,86.9781095 C33.6884968,86.9781095 36.9351433,83.7324392 36.9351433,79.7263546 C36.9351433,79.4159416 36.9146444,79.1113854 36.8755987,78.81171 L41.4966524,57.7456009 L52.7779194,56.3926689 L51.0316023,62.1323807 L60.6934506,64.0055962 C62.2747998,64.3111285 63.3173188,65.8563604 63.0117866,67.4386857 L55.776626,104.769264 C55.5062348,106.165146 54.272392,107.141288 52.8989609,107.141288 C52.8286787,107.141288 52.7564443,107.125669 52.6842098,107.120789 C51.9735788,107.222307 51.4240112,107.086624 51.4240112,107.086624 L42.2482814,105.281738 L39.2398133,121.978638 L16.2419203,141.855807 C14.5815037,143.184335 13.5165333,145.226423 13.5165333,147.518404 C13.5165333,151.524488 16.7631799,154.771135 20.7682883,154.771135 C22.7547362,154.771135 24.5537649,153.972651 25.8637468,152.677311 C25.8637468,152.677311 52.927269,131.153392 54.7331308,129.649158 C56.5389925,128.1459 57.4399711,125.888085 57.4399711,125.888085 C57.4399711,125.888085 61.8726295,112.272863 63.0810926,109.416674 C63.9088606,107.460486 67.8954223,108.363417 67.8954223,108.363417 L90.2344199,116.788494 L97.6678348,145.157117 C97.7478784,145.772086 97.904061,146.361676 98.1295497,146.918077 L98.131502,146.918077 C99.2033053,149.58099 101.811555,151.461039 104.856141,151.461039 C108.862225,151.461039 112.108872,148.213416 112.108872,144.208308 C112.108872,143.623599 112.03859,143.057437 111.90681,142.513726 C111.084899,137.667184 107.412655,116.113004 106.478488,111.447048 C105.426207,106.181741 101.967738,104.678483 101.967738,104.678483 C101.967738,104.678483 81.2080397,93.3991681 79.8551076,92.6455869 C78.5011994,91.893958 78.8028271,89.9377705 78.8028271,89.9377705 L82.6390631,75.9486871 L85.3459034,81.6649715 C85.3459034,81.6649715 86.9262764,84.8608587 89.3324652,84.9750673 L121.893714,85.7755033 C125.899798,85.7755033 129.146445,82.5288567 129.146445,78.521796 C129.146445,74.7246057 126.22583,71.6097382 122.505754,71.2983491 Z" id="Path" fill="#3A3A3A"></path>
            <path d="M52.6833313,107.120789 L52.6852836,107.120789 C52.7565419,107.126646 52.8287764,107.141288 52.9000347,107.141288 C54.2734657,107.141288 55.5073086,106.165146 55.7776997,104.769264 L63.0128603,67.4386857 C63.3183926,65.8563604 62.2758735,64.3121046 60.6945243,64.0055962 L40.9628007,60.1820501 L39.7074827,65.9041914 L56.7050341,69.1976927 L50.583651,100.779774 L6.3605671,92.2102278 L12.4809448,60.6291228 L24.7237112,63.0021228 L25.5358609,57.194081 L10.7199856,54.3222728 C10.5335426,54.2861556 10.3480757,54.268585 10.1655373,54.268585 C8.79213551,54.268585 7.55829269,55.2447265 7.2879015,56.6396327 L0.0537204816,93.971187 C-0.252787452,95.5525362 0.789731638,97.096792 2.37205306,97.4033005 L52.3465625,107.089552 C52.4578426,107.111027 52.5700989,107.112004 52.6833313,107.120789 Z" id="Path" fill="#F0C42E"></path>
            <path d="M57.6332471,9.74384415 C57.6332471,10.8127191 56.7547197,11.6863657 55.6809641,11.6863657 L18.5612324,11.6863657 C17.4874768,11.6863657 16.6089495,10.8117429 16.6089495,9.74384415 C16.6089495,8.67594539 17.4874768,7.80132263 18.5612324,7.80132263 L55.6809641,7.80132263 C56.7547197,7.80229877 57.6332471,8.67594539 57.6332471,9.74384415 Z" id="Path" fill="#F0C52E"></path>
            <path d="M55.6438707,19.5033066 C55.6438707,20.5712053 54.7653434,21.4458281 53.6915878,21.4458281 L31.2793797,21.4458281 C30.205624,21.4458281 29.3270967,20.5712053 29.3270967,19.5033066 C29.3270967,18.4344317 30.205624,17.560785 31.2793797,17.560785 L53.6906117,17.560785 C54.7653434,17.560785 55.6438707,18.4354078 55.6438707,19.5033066 Z" id="Path" fill="#F0C52E"></path>
        </g>
    </g>
</svg>