<?xml version="1.0" encoding="UTF-8"?>
<svg width="163px" height="35px" viewBox="0 0 163 35" version="1.1" xmlns="http://www.w3.org/2000/svg" xmlns:xlink="http://www.w3.org/1999/xlink">
    <title>device-logo-yellow</title>
    <g id="device-logo-yellow" stroke="none" stroke-width="1" fill="none" fill-rule="evenodd">
        <path d="M0.838708103,0.693483994 L0.838708103,33.8862182 L14.2066848,33.8862182 C16.3616436,33.9388721 18.5038588,33.5424364 20.4972006,32.722003 C22.4905424,31.9014709 24.2911491,30.6750194 25.7846242,29.1206909 C27.3154412,27.5625097 28.516603,25.7118176 29.3163897,23.6791582 C30.1161764,21.6464 30.4981891,19.4734618 30.4395091,17.2898545 C30.4981891,15.1062473 30.1161764,12.9333091 29.3163897,10.9005509 C28.516603,8.86788164 27.3154412,7.01719939 25.7846242,5.4590083 C24.2910503,3.90478848 22.4903448,2.67843576 20.4971018,1.85799255 C18.50376,1.03754933 16.3615448,0.640969345 14.2066848,0.693483994 L0.838708103,0.693483994 Z M8.47797576,26.5838182 L8.47797576,7.99291739 L14.2076727,7.99291739 C15.395597,7.945598 16.58036,8.14678939 17.6859939,8.58362939 C18.7917267,9.02046939 19.7940285,9.68333606 20.6288848,10.5298 C21.4670012,11.4362776 22.1161364,12.500717 22.5383558,13.6608818 C22.9604764,14.8210467 23.1472842,16.0537218 23.0877152,17.2868909 C23.1472842,18.52006 22.9605752,19.7527352 22.5383558,20.9129 C22.1162352,22.0730648 21.4671,23.1375042 20.6288848,24.0439818 C19.7942261,24.8905939 18.7919242,25.5536582 17.6861915,25.9904982 C16.5804588,26.4273382 15.395597,26.6283715 14.2076727,26.5808545 L8.47797576,26.5808545 L8.47797576,26.5838182 Z M42.8561576,20.7039636 L54.7917091,20.7039636 L54.7917091,13.4924485 L42.8522061,13.4924485 L42.8522061,7.99291739 L55.982103,7.99291739 L55.982103,0.693483994 L35.2129394,0.693483994 L35.2129394,33.8862182 L56.2201818,33.8862182 L56.2201818,26.5838182 L42.8522061,26.5838182 L42.8522061,20.7039636 L42.8561576,20.7039636 Z M78.7586364,33.8862182 L89.6440727,0.693483994 L81.2885939,0.693483994 L73.8883939,25.1138545 L66.4881939,0.693483994 L58.133703,0.693483994 L69.0191394,33.8862182 L78.7586364,33.8862182 Z M92.9840909,33.8862182 L100.623358,33.8862182 L100.623358,0.693483994 L92.9840909,0.693483994 L92.9840909,33.8862182 Z M131.13103,32.4873818 C133.593812,31.1912848 135.656503,29.24872 137.098806,26.8683273 L130.509655,23.0748727 C129.788503,24.360103 128.699861,25.4004382 127.383018,26.0622182 C125.959485,26.7973976 124.376903,27.1706182 122.775552,27.1488848 C121.471552,27.2110224 120.168539,27.0029752 118.948509,26.5378818 C117.728479,26.0727885 116.617115,25.3606267 115.685545,24.4460485 C114.786576,23.4908685 114.089133,22.3648842 113.633721,21.1348764 C113.179297,19.9049673 112.975794,18.5960279 113.036055,17.285903 C112.975794,15.9757782 113.179297,14.6668388 113.633721,13.4368309 C114.089133,12.2069218 114.786576,11.0808388 115.685545,10.1257576 C116.617115,9.21119915 117.728479,8.49904721 118.948509,8.033944 C120.168539,7.56883091 121.471552,7.36081327 122.775552,7.42291133 C124.367024,7.40018024 125.940715,7.76642642 127.358321,8.48982042 C128.684055,9.15941455 129.7806,10.2073564 130.509655,11.5008848 L137.098806,7.70742042 C135.62983,5.33203624 133.552321,3.39215842 131.082624,2.08836588 C128.531921,0.71216083 125.673988,0.00265093321 122.775552,0.0256782297 C113.115085,-0.243025097 105.194273,7.62345073 105.397776,17.285903 C105.192297,26.9483455 113.112121,34.8177879 122.772588,34.5500727 C125.68683,34.576943 128.56057,33.8674485 131.128067,32.4873818 L131.13103,32.4873818 Z M148.795291,20.7039636 L160.730842,20.7039636 L160.730842,13.4924485 L148.792327,13.4924485 L148.792327,7.99291739 L161.921236,7.99291739 L161.921236,0.693483994 L141.153061,0.693483994 L141.153061,33.8862182 L162.160303,33.8862182 L162.160303,26.5838182 L148.792327,26.5838182 L148.792327,20.7039636 L148.795291,20.7039636 Z" id="Shape" fill="#F0C52E"></path>
    </g>
</svg>