<?xml version="1.0" encoding="UTF-8"?>
<svg width="32px" height="32px" viewBox="0 0 32 32" version="1.1" xmlns="http://www.w3.org/2000/svg" xmlns:xlink="http://www.w3.org/1999/xlink">
    <title>facebook-ico</title>
    <g id="facebook-ico" stroke="none" stroke-width="1" fill="none" fill-rule="evenodd" fill-opacity="0.6">
        <path d="M15.9987813,1 C7.71500313,1 1,7.71500312 1,16 C1,23.485 6.48500313,29.6900313 13.6550313,30.8150313 L13.6550313,20.335 L9.84749687,20.335 L9.84749687,15.9987813 L13.6550313,15.9987813 L13.6550313,12.6950312 C13.6550313,8.935 15.895,6.85874687 19.3199687,6.85874687 C20.96125,6.85874687 22.6775312,7.15124688 22.6775312,7.15124688 L22.6775312,10.8425313 L20.7875313,10.8425313 C18.925,10.8425313 18.34375,11.99875 18.34375,13.1849687 L18.34375,16 L22.5037188,16 L21.83875,20.3362188 L18.34375,20.3362188 L18.34375,30.81625 C25.51375,29.69125 30.9987813,23.4862188 30.9987813,16 C30.9974687,7.71500312 24.2825313,1 15.9987813,1 Z" id="Shape" fill="#FFFFFF" fill-rule="nonzero"></path>
    </g>
</svg>