<?xml version="1.0" encoding="UTF-8"?>
<svg width="32px" height="32px" viewBox="0 0 32 32" version="1.1" xmlns="http://www.w3.org/2000/svg" xmlns:xlink="http://www.w3.org/1999/xlink">
    <title>instagram-ico</title>
    <g id="instagram-ico" stroke="none" stroke-width="1" fill="none" fill-rule="evenodd" fill-opacity="0.6">
        <path d="M20.6875,16 C20.6875,17.2432187 20.193625,18.4355312 19.3145313,19.3145312 C18.4355313,20.193625 17.2432188,20.6875 16,20.6875 C14.7567812,20.6875 13.5644688,20.193625 12.6854688,19.3145312 C11.806375,18.4355312 11.3125,17.2432187 11.3125,16 C11.3125,15.7328125 11.340625,15.4719062 11.3890938,15.2187812 L9.74999688,15.2187812 L9.74999688,21.4640312 C9.74999688,21.8984687 10.1015594,22.2500312 10.5359688,22.2500312 L21.465625,22.2500312 C21.6738438,22.2495625 21.8733438,22.1665937 22.0203438,22.0192188 C22.1674375,21.8719375 22.2500312,21.67225 22.2500312,21.4640312 L22.2500312,15.2187812 L20.6109062,15.2187812 C20.659375,15.4719062 20.6875,15.7328125 20.6875,16 Z M16,19.1249689 C16.4104375,19.124875 16.8169375,19.0439688 17.1961563,18.88675 C17.5752812,18.729625 17.9198125,18.4992813 18.2100625,18.2089375 C18.5002188,17.9185938 18.730375,17.5739688 18.8874063,17.1946563 C19.0443438,16.8154375 19.1250625,16.4089375 19.1249688,15.9984063 C19.124875,15.5879688 19.0439688,15.1814688 18.88675,14.8023438 C18.729625,14.423125 18.4992813,14.0785938 18.2089375,13.7884375 C17.9185938,13.4981875 17.5739687,13.2680313 17.1946563,13.1110938 C16.8154375,12.9540625 16.4089375,12.8733438 15.9984063,12.8734374 C15.1694688,12.873625 14.3744688,13.2031563 13.7884375,13.7894688 C13.2023125,14.375875 12.87325,15.1709688 12.8734374,16 C12.873625,16.8290313 13.2031563,17.6239375 13.7894688,18.2100625 C14.375875,18.7960938 15.1709688,19.12525 16,19.1249689 Z M19.75,12.71875 L21.6234062,12.71875 C21.7479062,12.71875 21.86725,12.6694375 21.9554687,12.5815937 C22.0435937,12.4936563 22.093375,12.3745 22.09375,12.25 L22.09375,10.3765937 C22.09375,10.2518313 22.0441562,10.1322063 21.9560312,10.0439969 C21.8678125,9.95579687 21.7481875,9.90625 21.6234062,9.90625 L19.75,9.90625 C19.6252187,9.90625 19.5055937,9.95579687 19.4174687,10.0439969 C19.32925,10.1322063 19.2796562,10.2518313 19.2796562,10.3765937 L19.2796562,12.25 C19.28125,12.5078125 19.4921875,12.71875 19.75,12.71875 Z M16,1 C12.0217188,1 8.20644062,2.58035313 5.39339687,5.39339687 C2.58035313,8.20644062 1,12.0217188 1,16 C1,19.9782813 2.58035313,23.7935312 5.39339687,26.6065938 C8.20644062,29.4196562 12.0217188,31 16,31 C17.969875,31 19.9203438,30.6119687 21.7402188,29.8582187 C23.5600938,29.104375 25.21375,27.9994375 26.6065938,26.6065938 C27.9994375,25.21375 29.104375,23.5600938 29.8582187,21.7402188 C30.6119687,19.9203438 31,17.969875 31,16 C31,14.0302187 30.6119687,12.0796563 29.8582187,10.2597438 C29.104375,8.43986875 27.9994375,6.78627812 26.6065938,5.39339687 C25.21375,4.00051563 23.5600938,2.895625 21.7402188,2.14180938 C19.9203438,1.38798625 17.969875,1 16,1 Z M23.8124688,22.0765937 C23.8124688,23.03125 23.03125,23.8124688 22.0765937,23.8124688 L9.92343438,23.8124688 C8.96875,23.8124688 8.18750312,23.03125 8.18750312,22.0765937 L8.18750312,9.92343438 C8.18750312,8.96875 8.96875,8.18750312 9.92343438,8.18750312 L22.0765937,8.18750312 C23.03125,8.18750312 23.8124688,8.96875 23.8124688,9.92343438 L23.8124688,22.0765937 Z" id="Shape" fill="#FFFFFF" fill-rule="nonzero"></path>
    </g>
</svg>