<?xml version="1.0" encoding="UTF-8"?>
<svg width="196px" height="131px" viewBox="0 0 196 131" version="1.1" xmlns="http://www.w3.org/2000/svg" xmlns:xlink="http://www.w3.org/1999/xlink">
    <title>number-3</title>
    <g id="number-3" stroke="none" stroke-width="1" fill="none" fill-rule="evenodd">
        <path d="M51.314983,0.2 C67.305683,0.2 79.775983,6.166667 88.725983,18.100007 C97.795283,29.914007 102.329883,45.666007 102.329883,65.356007 C102.329883,85.046007 97.795283,100.858007 88.725983,112.791007 C79.775983,124.605007 67.305683,130.512007 51.314983,130.512007 C35.324383,130.512007 22.794383,124.605007 13.724983,112.791007 C4.775003,100.858007 0.3,85.046007 0.3,65.356007 C0.3,45.666007 4.775003,29.914007 13.724983,18.100007 C22.794383,6.166667 35.324383,0.2 51.314983,0.2 Z M190.327883,2.705997 L190.327883,25.976007 L168.668883,53.542007 C176.664883,56.286707 183.108883,60.761707 188.000883,66.967007 C192.893883,73.053007 195.339883,80.272707 195.339883,88.626007 C195.339883,101.753007 190.924883,112.015007 182.093883,119.414007 C173.263883,126.813007 162.463883,130.512007 149.694883,130.512007 C139.790883,130.512007 130.899883,128.245007 123.023883,123.710007 C115.267883,119.175007 109.539883,112.493007 105.839883,103.662007 L130.541883,89.342007 C133.644883,98.172707 140.028883,102.588007 149.694883,102.588007 C155.303883,102.588007 159.539883,101.275007 162.403883,98.650007 C165.267883,96.024707 166.699883,92.683307 166.699883,88.626007 C166.699883,84.568707 165.267883,81.227307 162.403883,78.602007 C159.539883,75.976707 155.303883,74.664007 149.694883,74.664007 L143.787883,74.664007 L132.868883,58.375007 L155.601883,29.556007 L109.777883,29.556007 L109.777883,2.705997 L190.327883,2.705997 Z M51.314983,28.124007 C36.398383,28.124007 28.939983,40.534707 28.939983,65.356007 C28.939983,90.177307 36.398383,102.588007 51.314983,102.588007 C66.231683,102.588007 73.689983,90.177307 73.689983,65.356007 C73.689983,40.534707 66.231683,28.124007 51.314983,28.124007 Z" id="Combined-Shape" fill="#FFFFFF" fill-rule="nonzero"></path>
    </g>
</svg>