<?xml version="1.0" encoding="UTF-8"?>
<svg width="164px" height="131px" viewBox="0 0 164 131" version="1.1" xmlns="http://www.w3.org/2000/svg" xmlns:xlink="http://www.w3.org/1999/xlink">
    <title>number-1</title>
    <g id="number-1" stroke="none" stroke-width="1" fill="none" fill-rule="evenodd">
        <g id="01" fill="#FFFFFF" fill-rule="nonzero">
            <path d="M88.7961,112.785 C79.8461,124.599 67.3758,130.506 51.3851,130.506 C35.3945,130.506 22.8645,124.599 13.7951,112.785 C4.84512,100.852 0.370117,85.04 0.370117,65.35 C0.370117,45.66 4.84512,29.908 13.7951,18.094 C22.8645,6.16066 35.3945,0.193993 51.3851,0.193993 C67.3758,0.193993 79.8461,6.16066 88.7961,18.094 C97.8654,29.908 102.4,45.66 102.4,65.35 C102.4,85.04 97.8654,100.852 88.7961,112.785 Z M29.0101,65.35 C29.0101,90.1713 36.4685,102.582 51.3851,102.582 C66.3018,102.582 73.7601,90.1713 73.7601,65.35 C73.7601,40.5287 66.3018,28.118 51.3851,28.118 C36.4685,28.118 29.0101,40.5287 29.0101,65.35 Z" id="Shape"></path>
            <polygon id="Path" points="138.8 2.69999 163.86 2.69999 163.86 128 135.22 128 135.22 32.951 113.024 39.037 106.043 14.514"></polygon>
        </g>
    </g>
</svg>