<?xml version="1.0" encoding="UTF-8"?>
<svg width="194px" height="131px" viewBox="0 0 194 131" version="1.1" xmlns="http://www.w3.org/2000/svg" xmlns:xlink="http://www.w3.org/1999/xlink">
    <title>number-2</title>
    <g id="number-2" stroke="none" stroke-width="1" fill="none" fill-rule="evenodd">
        <path d="M51.4851,0.293993 C67.4758,0.293993 79.9461,6.26066 88.8961,18.194 C97.9654,30.008 102.5,45.76 102.5,65.45 C102.5,85.14 97.9654,100.952 88.8961,112.885 C79.9461,124.699 67.4758,130.606 51.4851,130.606 C35.4945,130.606 22.9645,124.699 13.8951,112.885 C4.94512,100.952 0.470117,85.14 0.470117,65.45 C0.470117,45.76 4.94512,30.008 13.8951,18.194 C22.9645,6.26066 35.4945,0.293993 51.4851,0.293993 Z M149.282,0.293993 C160.977,0.293993 170.941,3.93366 179.175,11.213 C187.528,18.373 191.705,28.039 191.705,40.211 C191.705,53.457 185.201,66.5837 172.194,79.591 L151.43,100.534 L193.495,100.534 L193.495,128.1 L108.291,128.1 L108.291,107.336 L150.356,63.66 C158.829,54.9487 163.065,47.55 163.065,41.464 C163.065,37.526 161.872,34.3637 159.485,31.977 C157.098,29.471 153.817,28.218 149.64,28.218 C141.287,28.218 135.141,32.7527 131.203,41.822 L107.038,27.681 C110.857,18.731 116.585,11.929 124.222,7.275 C131.859,2.621 140.213,0.293993 149.282,0.293993 Z M51.4851,28.218 C36.5685,28.218 29.1101,40.6287 29.1101,65.45 C29.1101,90.2713 36.5685,102.682 51.4851,102.682 C66.4018,102.682 73.8601,90.2713 73.8601,65.45 C73.8601,40.6287 66.4018,28.218 51.4851,28.218 Z" id="Combined-Shape" fill="#FFFFFF" fill-rule="nonzero"></path>
    </g>
</svg>