<?xml version="1.0" encoding="UTF-8"?>
<svg width="156px" height="186px" viewBox="0 0 156 186" version="1.1" xmlns="http://www.w3.org/2000/svg" xmlns:xlink="http://www.w3.org/1999/xlink">
    <title>online-loans-ico</title>
    <g id="online-loans-ico" stroke="none" stroke-width="1" fill="none" fill-rule="evenodd">
        <g id="Group-16" fill-rule="nonzero">
            <path d="M141.25,83.627 C149.396,83.627 156,77.0232 156,68.877 C156,60.7308 149.396,54.127 141.25,54.127 C133.104,54.127 126.5,60.7308 126.5,68.877 C126.5,77.0232 133.104,83.627 141.25,83.627 Z" id="Path" fill="#FFFFFF"></path>
            <path d="M89.1131,139.544 L82.0391,157.419 L59.2151,172.336 C57.0471,173.568 55.5811,175.895 55.5811,178.566 C55.5811,182.524 58.7891,185.733 62.7481,185.733 C64.2831,185.733 65.7031,185.246 66.8691,184.423 C70.6301,182.052 89.2201,170.339 92.3641,168.543 C95.8641,166.543 96.4891,163.418 96.4891,163.418 L101.364,147.418 C101.364,147.418 101.364,147.418 95.6141,144.793 C89.8641,142.168 89.1131,139.544 89.1131,139.544 Z" id="Path" fill="#FFFFFF"></path>
            <path d="M139.321,141.462 C139.321,141.462 138.163,137.628 134.742,136.295 C131.321,134.962 116.655,128.545 116.655,128.545 L132.071,102.961 C132.071,102.961 135.905,93.961 131.738,89.544 C127.571,85.127 117.988,79.794 117.988,79.794 L110.467,79.794 L126.266,52.993 C129.62,47.307 127.709,39.912 122.024,36.561 L72.6331,7.447 C66.9471,4.095 59.5541,6.005 56.2021,11.691 L9.14406,91.519 C5.79306,97.204 7.70206,104.599 13.3881,107.951 L62.7781,137.064 C68.4641,140.416 75.8591,138.505 79.2101,132.822 L102.144,93.919 L110.24,93.919 L95.4901,120.128 C95.4901,120.128 90.3561,129.342 95.1561,134.378 C99.3651,138.794 107.823,141.294 107.823,141.294 L125.073,147.795 L130.174,179.086 L130.183,179.085 C130.732,182.498 133.682,185.108 137.25,185.108 C141.208,185.108 144.416,181.899 144.416,177.941 C144.416,177.752 144.402,177.566 144.388,177.381 L144.416,177.377 L139.321,141.462 Z M17.9581,100.198 C16.5571,99.372 16.0711,97.49 16.8971,96.09 L63.9561,16.261 C64.7821,14.86 66.6631,14.373 68.0631,15.199 L79.5841,21.991 L29.4801,106.989 L17.9581,100.198 Z M71.4561,128.252 C70.6301,129.652 68.7491,130.139 67.3491,129.313 L37.2331,111.559 L87.3401,26.563 L117.453,44.316 C118.855,45.142 119.34,47.023 118.515,48.423 L100.022,79.795 L91.2391,79.795 L71.3231,94.222 C70.8811,94.474 70.4701,94.775 70.0931,95.113 L70.0621,95.135 L70.0641,95.138 C68.6191,96.45 67.7061,98.336 67.7061,100.442 C67.7061,104.4 70.9141,107.609 74.8731,107.609 C76.4211,107.609 77.8511,107.113 79.0221,106.278 L79.0241,106.281 L79.0951,106.223 C79.2771,106.09 79.4511,105.95 79.6191,105.8 L89.2791,98.016 L71.4561,128.252 Z" id="Shape" fill="#FFFFFF"></path>
            <path d="M49.2189,5.94302 L2.16091,85.772 C-1.19009,91.457 0.718907,98.852 6.40491,102.204 L55.7949,131.317 C61.4809,134.669 68.8759,132.758 72.2269,127.075 L119.284,47.246 C122.638,41.56 120.727,34.165 115.042,30.814 L65.6499,1.70002 C59.9649,-1.65198 52.5709,0.258023 49.2189,5.94302 Z M9.91391,90.343 L56.9729,10.514 C57.7989,9.11302 59.6799,8.62602 61.0799,9.45202 L72.6009,16.244 L22.4959,101.242 L10.9739,94.451 C9.57391,93.625 9.08791,91.743 9.91391,90.343 Z M111.531,42.676 L64.4719,122.505 C63.6459,123.905 61.7649,124.392 60.3649,123.566 L30.2489,105.812 L80.3549,20.816 L110.468,38.569 C111.871,39.394 112.355,41.275 111.531,42.676 Z" id="Shape" fill="#F0C42E"></path>
            <path d="M135.25,77.833 C143.396,77.833 150,71.2292 150,63.083 C150,54.9368 143.396,48.333 135.25,48.333 C127.104,48.333 120.5,54.9368 120.5,63.083 C120.5,71.2292 127.104,77.833 135.25,77.833 Z" id="Path" fill="#3A3A3A"></path>
            <path d="M81.875,133.75 L74.801,151.625 L51.976,166.542 C49.808,167.774 48.342,170.101 48.342,172.772 C48.342,176.73 51.55,179.939 55.509,179.939 C57.044,179.939 58.464,179.452 59.63,178.629 C63.391,176.258 81.981,164.545 85.125,162.749 C88.625,160.749 89.25,157.624 89.25,157.624 L94.125,141.624 C94.125,141.624 94.125,141.624 88.375,138.999 C82.625,136.374 81.875,133.75 81.875,133.75 Z" id="Path" fill="#3A3A3A"></path>
            <path d="M132.083,135.668 C132.083,135.668 130.925,131.834 127.504,130.501 C124.083,129.168 109.417,122.751 109.417,122.751 L124.833,97.167 C124.833,97.167 128.667,88.167 124.5,83.75 C120.333,79.333 110.75,74 110.75,74 L84,74 L64.085,88.427 C63.643,88.68 63.232,88.98 62.855,89.318 L62.824,89.34 L62.826,89.343 C61.381,90.654 60.468,92.541 60.468,94.646 C60.468,98.604 63.676,101.813 67.635,101.813 C69.183,101.813 70.613,101.317 71.784,100.482 L71.786,100.485 L71.857,100.427 C72.039,100.294 72.214,100.154 72.382,100.004 L87.125,88.123 L103,88.123 L88.25,114.332 C88.25,114.332 83.116,123.546 87.916,128.582 C92.125,132.998 100.583,135.498 100.583,135.498 L117.833,141.999 L122.934,173.29 L122.943,173.289 C123.492,176.702 126.442,179.312 130.01,179.312 C133.968,179.312 137.176,176.103 137.176,172.145 C137.176,171.956 137.162,171.77 137.148,171.585 L137.176,171.581 L132.083,135.668 Z" id="Path" fill="#3A3A3A"></path>
        </g>
    </g>
</svg>