<?xml version="1.0" encoding="UTF-8"?>
<svg width="160px" height="160px" viewBox="0 0 160 160" version="1.1" xmlns="http://www.w3.org/2000/svg" xmlns:xlink="http://www.w3.org/1999/xlink">
    <title>popular-vr</title>
    <g id="popular-vr" stroke="none" stroke-width="1" fill="none" fill-rule="evenodd">
        <rect id="Rectangle" fill="#F7E296" fill-rule="nonzero" x="0" y="0" width="160" height="160"></rect>
        <path d="M99.403,52.1749 L122.59,58.7549 C125.084,59.5889 126.792,60.6649 126.792,63.0199 L126.792,63.0199 L126.792,71.2139 L118.466,69.6329 C117.176,69.6329 116.131,70.6939 116.131,72.0029 L116.131,72.0029 L116.131,84.6389 C116.131,85.9469 117.176,87.0089 118.466,87.0069 L118.466,87.0069 L126.792,85.4399 L126.792,93.3529 C126.792,95.7089 124.991,99.0919 122.59,99.9249 L122.59,99.9249 L99.325,106.99 C100.842,105.846 101.292,104.136 101.292,101.78 L101.292,101.78 L101.292,56.5709 C101.292,54.2149 101.019,53.5659 99.403,52.1749 L99.403,52.1749 Z M94.938,52.024 C94.938,52.024 99.17,51.403 99.17,56.483 L99.17,56.483 L99.170224,101.746018 C99.1763284,101.955018 99.2781739,106.762022 95.731,106.763 C94.2633333,106.763 90.2941128,106.450244 86.0888569,106.077916 L85.3447638,106.011644 C84.9719534,105.978251 84.5983427,105.944509 84.2254883,105.910594 L83.4812489,105.842583 C78.4088046,105.37696 73.6713896,104.900509 73.2416732,104.857195 L73.21,104.854 L64.149,91.333 C64.149,91.333 63.114,89.472 61.717,89.472 C60.321,89.472 59.212,91.3 59.212,91.3 L59.212,91.3 L51.076,102.968 L34.599,101.565 L34.599,101.565 L34.5818783,101.56453 C34.5481962,101.563188 34.4665171,101.558024 34.3519981,101.538183 L34.2270937,101.513048 C33.5085426,101.348617 31.9995854,100.66381 31.9995854,97.812 L31.9995854,97.812 L32.000582,71.3209265 C32.0005885,71.166145 32.000595,71.0124094 32.0006014,70.8597809 L32.0007573,61.5246555 C32.0006128,61.5197985 32.0004218,61.5125721 32.000236,61.5030941 L32.0001016,61.3601895 C32.0109844,60.5928281 32.21825,57.501125 34.838,57.145 C37.832,56.738 94.938,52.024 94.938,52.024 Z M81.14,67.215 C76.479,67.215 72.699,72.454 72.699,78.917 C72.699,85.379 76.478,90.618 81.14,90.618 C85.802,90.618 89.582,85.379 89.582,78.917 C89.582,72.454 85.802,67.215 81.14,67.215 Z M44.982,68.642 C41.284,68.642 38.286,73.243 38.286,78.917 C38.286,84.591 41.284,89.192 44.982,89.192 C48.68,89.192 51.678,84.591 51.678,78.917 C51.678,73.243 48.68,68.642 44.982,68.642 Z M119.531,71.5349 L127.129,72.9789 C128.187,73.3229 128.953,73.8079 128.953,74.8299 L128.953,74.8299 L128.953,81.8229 C128.953,82.8459 128.283,83.2559 127.129,83.6749 L127.129,83.6749 L119.531,85.1059 C118.523,85.1059 117.707,84.2769 117.707,83.2539 L117.707,83.2539 L117.707,73.3859 C117.707,72.3639 118.523,71.5349 119.531,71.5349 L119.531,71.5349 Z" id="Combined-Shape" fill="#363636" fill-rule="nonzero"></path>
    </g>
</svg>