<?xml version="1.0" encoding="UTF-8"?>
<svg width="160px" height="160px" viewBox="0 0 160 160" version="1.1" xmlns="http://www.w3.org/2000/svg" xmlns:xlink="http://www.w3.org/1999/xlink">
    <title>popular-smart-watch</title>
    <g id="popular-smart-watch" stroke="none" stroke-width="1" fill="none" fill-rule="evenodd">
        <rect id="Rectangle" fill="#F7E296" fill-rule="nonzero" x="0" y="0" width="160" height="160"></rect>
        <path d="M95.333,113.671 C96.176,113.671 96.765,114.354 96.637,115.187 L96.637,115.187 L95.022,125.954 L95.022,125.954 C94.771,127.62 93.189,128.982 91.505,128.982 L91.505,128.982 L65.473,128.982 C63.789,128.982 62.207,127.62 61.957,125.954 L61.957,125.954 L60.342,115.187 C60.217,114.354 60.803,113.671 61.646,113.671 L61.646,113.671 Z M95.897,49.371 C100.892,49.371 104.979,53.505 104.979,58.557 L104.979,58.557 L104.979,63.197 L106.494,63.197 C107.326,63.197 108.008,63.886 108.009,64.728 L108.009,64.728 L108.009,72.382 C108.009,73.225 107.327,73.913 106.495,73.913 L106.495,73.913 L104.98,73.913 L104.98,82.701 L106.495,82.701 C106.91,82.701 107.252,83.046 107.252,83.467 L107.252,83.467 L107.252,97.246 C107.252,97.666 106.91,98.01 106.495,98.01 L106.495,98.01 L104.98,98.01 L104.98,101.425 C104.98,106.477 100.893,110.61 95.898,110.61 L95.898,110.61 L61.083,110.61 C56.087,110.61 52,106.477 52,101.425 L52,101.425 L52,58.557 C52,53.505 56.086,49.372 61.082,49.371 L61.082,49.371 Z M70.945,89.178 C68.019,89.178 65.647,91.576 65.647,94.536 C65.647,97.496 68.019,99.894 70.945,99.894 C73.87,99.894 76.243,97.496 76.243,94.536 C76.243,91.576 73.87,89.178 70.945,89.178 Z M86.082,89.178 C83.156,89.178 80.784,91.576 80.784,94.536 C80.784,97.496 83.156,99.894 86.082,99.894 C89.008,99.894 91.381,97.496 91.381,94.536 C91.381,91.576 89.008,89.178 86.082,89.178 Z M78.49,73.867 C75.146,73.867 72.435,76.609 72.435,79.991 C72.435,83.373 75.146,86.114 78.49,86.115 C81.834,86.115 84.545,83.373 84.545,79.991 C84.545,76.609 81.834,73.867 78.49,73.867 Z M94.384,75.04 C91.457,75.04 89.086,77.439 89.086,80.398 C89.086,83.357 91.457,85.756 94.384,85.756 C97.31,85.756 99.682,83.356 99.682,80.398 C99.682,77.439 97.31,75.04 94.384,75.04 Z M62.595,75.039 C59.668,75.039 57.297,77.438 57.297,80.397 C57.297,83.356 59.668,85.756 62.595,85.7550003 C65.52,85.7550003 67.893,83.356 67.893,80.397 C67.893,77.438 65.521,75.039 62.595,75.039 Z M86.082,60.088 C83.156,60.088 80.784,62.486 80.784,65.446 C80.784,68.406 83.156,70.804 86.082,70.804 C89.008,70.804 91.381,68.406 91.381,65.446 C91.381,62.486 89.008,60.088 86.082,60.088 Z M70.945,60.088 C68.019,60.088 65.647,62.486 65.647,65.446 C65.647,68.406 68.019,70.804 70.945,70.804 C73.87,70.804 76.243,68.406 76.243,65.446 C76.243,62.486 73.87,60.088 70.945,60.088 Z M91.506,31 C93.189,31 94.771,32.362 95.021,34.026 C95.023,34.027 95.023,34.028 95.023,34.028 L95.023,34.028 L96.639,44.796 C96.765,45.629 96.176,46.31 95.333,46.31 L95.333,46.31 L61.646,46.31 C60.803,46.31 60.217,45.628 60.342,44.795 L60.342,44.795 L61.957,34.028 C62.206,32.362 63.788,31 65.474,31 L65.474,31 Z" id="Combined-Shape" fill="#363636" fill-rule="nonzero"></path>
    </g>
</svg>