<?xml version="1.0" encoding="UTF-8"?>
<svg width="160px" height="160px" viewBox="0 0 160 160" version="1.1" xmlns="http://www.w3.org/2000/svg" xmlns:xlink="http://www.w3.org/1999/xlink">
    <title>popular-quadcopter</title>
    <g id="popular-quadcopter" stroke="none" stroke-width="1" fill="none" fill-rule="evenodd">
        <rect id="Rectangle" fill="#F7E296" fill-rule="nonzero" x="0" y="0" width="160" height="160"></rect>
        <path d="M118.884,46 C119.708,46 120.045,46.1284 120.251,46.4883 C120.38,46.7715 120.508,48.5962 120.508,50.6001 L120.507373,51.0952976 C120.499506,54.6378326 120.454872,54.3849872 122.702,54.5332 L122.702,54.5332 L123.734,54.6103 L123.863,57.1547 L123.99,59.6986 L125.177,59.9818 C127.757,60.6497 129.175,62.577 128.968,65.2762 C128.839,67.2034 127.937,68.617 126.389,69.3631 C126.372942,69.3705377 126.357041,69.3778728 126.341266,69.3851068 L126.247879,69.427308 C126.1863,69.454648 126.125746,69.4804148 126.064238,69.5046985 L125.971013,69.540023 C125.121098,69.8481371 123.91696,69.8941992 117.488131,69.9003305 L116.752068,69.9008587 C116.625725,69.9009231 116.497529,69.9009766 116.367448,69.9010207 L114.47068,69.9015891 C109.22979,69.9076555 105.003959,69.9839673 104.956,70.0819 C104.903,70.2103 106.065,79.4892 107.534,90.7206 C108.979,101.951 110.217,111.718 110.243,112.387 C110.295,114.004 109.417,115.008 107.896,115.008 C106.657,115.008 105.884,114.366 105.575,113.106 C105.446,112.593 104.079,102.773 102.556,91.285 C101.698,84.8187487 100.896896,79.0070907 100.347846,75.1691474 L100.274556,74.6581491 C99.8922039,71.9993932 99.6478615,70.4163 99.6166,70.4163 C99.513,70.4163 98.5336,71.8293 97.4232,73.552 C94.4828,78.178 95.0238,77.8689 89.7894,77.8689 L89.7894,77.8689 L85.43,77.8689 L85.43,83.4987 L90.5618,83.5758 C95.2825,83.6529 95.7727,83.7027 96.4436,84.191 C97.9464382,85.2972426 98.0591564,85.5816022 98.0661771,93.9555565 L98.0660521,96.7559378 C98.058637,104.73581 97.9541941,105.033941 96.5461,106.217 L96.5461,106.217 L95.6955,106.913 L64.3303,106.913 L63.4792,106.217 C63.3031882,106.069118 63.1475183,105.935062 63.0098401,105.798102 L62.9099182,105.694576 C62.0242172,104.7358 61.9611343,103.442019 61.9569781,96.3762224 L61.9568728,94.3478146 C61.961086,85.5900573 62.0551588,85.3141647 63.5817,84.191 C64.253,83.7028 64.7428,83.6529 69.463,83.5758 L69.463,83.5758 L74.5958,83.4987 L74.5958,77.8689 L70.2374,77.8689 C65.001,77.8689 65.542,78.178 62.6021,73.552 C61.4927,71.8294 60.5127,70.4163 60.4097,70.4163 C60.3321,70.4163 58.9913,79.8221 57.4693,91.285 C56.3674908,99.5986842 55.3475388,107.038805 54.8189613,110.710129 L54.7632672,111.095547 C54.5932,112.267813 54.48355,112.97775 54.4512,113.106 C54.1416,114.366 53.3672,115.008 52.1299,115.008 C50.6084,115.008 49.7309,114.004 49.7822,112.387 C49.8076,111.718 51.0459,101.951 52.4907,90.7206 C53.9609,79.4891 55.1211,70.2103 55.0703,70.0819 C55.0210939,69.9839673 50.7940165,69.9076555 45.5557623,69.9015891 L43.6591786,69.9010207 C43.5290791,69.9009766 43.4008645,69.9009231 43.2745037,69.9008587 L42.5383384,69.9003305 C35.6323401,69.893745 34.7546921,69.841094 33.8688478,69.4671494 L33.7769319,69.427308 C33.7307119,69.406803 33.683913,69.385413 33.6357,69.3631 C32.0879,68.617 31.185,67.2034 31.0571,65.2762 C30.8496,62.577 32.2695,60.6498 34.8486,59.9818 L34.8486,59.9818 L36.0351,59.6986 L36.164,57.1547 L36.2934,54.6103 L37.3242,54.5332 C39.5715191,54.3849872 39.5247856,54.6378326 39.5167388,51.0952976 L39.5167621,50.3506444 C39.5268425,48.4468179 39.6503917,46.7597 39.7744,46.4883 C39.9814,46.1285 40.3169,46 41.1416,46 C41.7602,46 42.3798,46.1284 42.5605,46.3086 C42.7671,46.5141 42.8701,47.7739 42.8701,50.2407 C42.8701,52.708 42.9727,53.9677 43.1802,54.1728 C43.3604,54.3525 44.0821,54.4809 44.8306,54.4809 C46.3677622,54.4809 46.4731329,54.5276988 46.480033,57.1212728 L46.4805,59.8784 L113.544,59.8784 L113.544,57.5913 C113.544,54.5331 113.57,54.4809 115.196,54.4809 C115.944,54.4809 116.665,54.3525 116.845,54.1728 C117.052,53.9678 117.155,52.708 117.155,50.2407 C117.155,47.7739 117.258,46.5142 117.464,46.3086 C117.646,46.1284 118.265,46 118.884,46 Z M82.6172,86.6084 C80.6045,85.9659 79.3164,85.9659 77.3042,86.6084 C74.4922,87.5069 71.9907,90.0528 71.2427,92.7764 C70.8037,94.3194 70.9336,96.9922 71.5264,98.5596 C72.2232,100.435 74.208,102.569 76.0923,103.495 C77.3818,104.137 77.8462,104.214 80.0127,104.214 C82.1797,104.214 82.6436,104.137 83.9336,103.495 C85.8144,102.569 87.8027,100.435 88.499,98.5596 C89.0928,96.9922 89.2217,94.3194 88.7832,92.7764 C88.0088,90.001 85.5059,87.5068 82.6172,86.6084 Z M80.0129,89.9492 C82.4377,89.9492 84.6037,91.6963 85.1721,94.0869 C85.7121,96.3232 84.7063,98.7119 82.7209,99.8701 C79.5485,101.721 75.4992,99.8448 74.7253,96.168 C74.2873,94.0869 75.7575,91.3633 77.7941,90.4375 C78.3874,90.1807 79.3674,89.9492 80.0129,89.9492 Z M50.0918,46.1543 C50.9951,46 56.5156,46.232 58.9912,46.54 C63.1431,47.0536 66.7803,48.0301 68.0454,48.93 C69.6685,50.1376 65.2075,51.8597 58.3467,52.682 C55.0191,53.0678 49.3965,53.0161 47.8467,52.5537 C46.0425,52.0141 45.5786,51.4228 45.5786,49.5981 C45.5786,47.2852 46.1714,46.8223 50.0918,46.1543 Z M103.484,46.2579 C106.398,46 110.424,46.1026 112.073,46.5142 C113.827,46.9766 114.446,47.7739 114.446,49.5981 C114.446,52.2973 113.054,52.9395 107.25,52.9395 C99.4609,52.9136 91.6201,51.166 91.6201,49.4438 C91.6201,48.3389 97.1651,46.8482 103.484,46.2579 Z M26.0523,46.2579 C28.9415,46 33.274,46.1543 34.7198,46.5402 C36.3185,46.9767 36.9376,47.774 36.9376,49.3927 C36.9376,50.9605 36.5255,51.7061 35.3136,52.3741 C34.1003,53.0162 25.5885,52.9908 21.5905,52.3228 C18.0563,51.7315 14.9874,50.8062 14.3429,50.0865 C13.8526,49.5465 13.8526,49.5465 14.5753,48.9303 C15.8384,47.8507 20.5074,46.7452 26.0523,46.2579 Z M126.777,46.2833 C129.046,45.9747 130.053,45.9747 133.534,46.2579 C139.492,46.7452 144.11,47.7994 145.45,48.9303 C146.173,49.5465 146.173,49.5465 145.683,50.0865 C145.038,50.8062 141.969,51.7315 138.435,52.3228 C136.37,52.6822 134.23,52.811 130.569,52.811 L129.902585,52.8100851 C125.090014,52.7957819 124.388511,52.6010128 123.5,51.3458 C123.036,50.6778 122.959,48.5445 123.346,47.774 C123.758,47.0538 124.996,46.5143 126.777,46.2833 Z" id="Combined-Shape" fill="#363636" fill-rule="nonzero"></path>
    </g>
</svg>