<?xml version="1.0" encoding="UTF-8"?>
<svg width="160px" height="160px" viewBox="0 0 160 160" version="1.1" xmlns="http://www.w3.org/2000/svg" xmlns:xlink="http://www.w3.org/1999/xlink">
    <title>popular-action-cameras</title>
    <g id="popular-action-cameras" stroke="none" stroke-width="1" fill="none" fill-rule="evenodd">
        <rect id="Rectangle" fill="#F7E296" fill-rule="nonzero" x="0" y="0" width="160" height="160"></rect>
        <path d="M88.605,107.426 L88.605,117.809 L98.202,117.809 C98.735,117.809 99.132,118.245 99.132,118.78 L99.132,118.78 L99.132,121.953 C99.132,122.488 98.735,123.001 98.202,123.001 L98.202,123.001 L72.13,123.001 C71.598,123.001 71.12,122.488 71.12,121.953 L71.12,121.953 L71.12,118.781 C71.12,118.246 71.597,117.809 72.13,117.809 L72.13,117.809 L81.648,117.809 L81.648,115.483 L62.863,115.483 C62.386,116.913 61.105,117.809 59.594,117.809 L59.594,117.809 L47.559,117.809 C45.642,117.809 44,116.253 44,114.329 L44,114.329 L44,111.311 C44,109.387 45.642,107.784 47.559,107.785 L47.559,107.785 L59.593,107.785 C61.017,107.785 62.237,108.679 62.774,109.933 L62.774,109.933 L81.647,109.933 L81.647,107.426 L88.605,107.426 Z M97.895,43.34 C101.099,43.34 103.805,45.453 104.666,48.39 C110.89,52.57 115.021,59.672 115.022,67.751 C115.022,75.704 111.087,82.711 105.021,86.915 L105.021,86.915 L105.021,97.261 C105.021,101.173 101.793,104.382 97.895,104.382 L97.895,104.382 L51.148,104.382 C47.25,104.382 44,101.173 44,97.261 L44,97.261 L44,50.361 C44,46.449 47.25,43.34 51.148,43.34 L51.148,43.34 Z M56.238,86.308 C52.979,86.308 50.337,88.96 50.337,92.23 C50.337,95.501 52.979,98.151 56.238,98.151 C59.497,98.151 62.14,95.501 62.14,92.23 C62.14,88.96 59.497,86.308 56.238,86.308 Z M91.762,47.611 C80.685,47.611 71.705,56.622 71.705,67.735 C71.705,78.848 80.686,87.858 91.762,87.858 C102.839,87.858 111.82,78.849 111.82,67.735 C111.82,56.621 102.839,47.611 91.762,47.611 Z M83.8279,80.471 C84.6205,80.471 85.2629,81.1135 85.2629,81.906 C85.2629,82.6985 84.6205,83.341 83.8279,83.341 C83.0354,83.341 82.3929,82.6985 82.3929,81.906 C82.3929,81.1135 83.0354,80.471 83.8279,80.471 Z M100.415,80.04 C101.205,80.04 101.845,80.6829 101.845,81.476 C101.845,82.2691 101.205,82.912 100.415,82.912 C99.6252,82.912 98.985,82.2691 98.985,81.476 C98.985,80.6829 99.6252,80.04 100.415,80.04 Z M91.762,55.506 C98.4932,55.506 103.95,60.9811 103.95,67.735 C103.95,74.4889 98.4932,79.964 91.762,79.964 C85.0307,79.964 79.574,74.4889 79.574,67.735 C79.574,60.9811 85.0307,55.506 91.762,55.506 Z M75.562,66.301 C76.3545,66.301 76.997,66.9435 76.997,67.736 C76.997,68.5286 76.3545,69.171 75.562,69.171 C74.7694,69.171 74.127,68.5286 74.127,67.736 C74.127,66.9435 74.7694,66.301 75.562,66.301 Z M107.963,66.301 C108.755,66.301 109.398,66.9435 109.398,67.736 C109.398,68.5286 108.755,69.171 107.963,69.171 C107.17,69.171 106.528,68.5286 106.528,67.736 C106.528,66.9435 107.17,66.301 107.963,66.301 Z M60.78,49.963 L51.841,49.963 C51.058,49.963 50.423,50.6 50.423,51.386 L50.423,51.386 L50.423,65.546 C50.423,66.331 51.058,66.968 51.841,66.968 L51.841,66.968 L60.781,66.968 C61.564,66.968 62.199,66.332 62.199,65.546 L62.199,65.546 L62.198,65.546 L62.198,51.386 C62.198,50.6 61.563,49.963 60.78,49.963 L60.78,49.963 Z M83.109,52.559 C83.9015,52.559 84.5439,53.2015 84.5439,53.994 C84.5439,54.7865 83.9015,55.429 83.109,55.429 C82.3164,55.429 81.674,54.7865 81.674,53.994 C81.674,53.2015 82.3164,52.559 83.109,52.559 Z M99.697,52.13 C100.489,52.13 101.132,52.7725 101.132,53.565 C101.132,54.3575 100.489,55 99.697,55 C98.9044,55 98.262,54.3575 98.262,53.565 C98.262,52.7725 98.9044,52.13 99.697,52.13 Z M96.038,36 C96.771,36 97.349,36.754 97.349,37.49 L97.349,37.49 L97.348,37.49 L97.348,41.012 L51.672,41.012 L51.672,37.49 C51.672,36.754 52.32,36 53.053,36 L53.053,36 Z" id="Combined-Shape" fill="#363636" fill-rule="nonzero"></path>
    </g>
</svg>