<?xml version="1.0" encoding="UTF-8"?>
<svg width="160px" height="160px" viewBox="0 0 160 160" version="1.1" xmlns="http://www.w3.org/2000/svg" xmlns:xlink="http://www.w3.org/1999/xlink">
    <title>popular-monopods</title>
    <g id="popular-monopods" stroke="none" stroke-width="1" fill="none" fill-rule="evenodd">
        <rect id="Rectangle" fill="#F7E296" fill-rule="nonzero" x="0" y="0" width="160" height="160"></rect>
        <path d="M91.6539,85.13 L91.6539,87.888 L83.6079,87.888 L83.6079,90.861 L88.4029,90.861 L93.4539,89.648 L93.4539,96.359 L88.4029,95.146 L83.6069,95.146 L83.6069,123.136 C85.7479,124.072 87.2429,126.207 87.2429,128.693 L87.2429,128.693 L87.2429,143 L72.9079,143 L72.9079,128.693 C72.9079,126.206 74.4039,124.072 76.5429,123.134 L76.5429,123.134 L76.5429,87.888 L68.4979,87.888 L68.4979,85.13 L91.6539,85.13 Z M119.821,30.011 C121.583,30.011 123.011,31.438 123.011,33.199 L123.011,33.199 L123.011,79.612 C123.011,81.374 121.584,82.801 119.822,82.801 L119.822,82.801 L40.33,82.801 C38.569,82.801 37.142,81.375 37.142,79.612 L37.142,79.612 L37.142,33.199 C37.142,31.438 38.569,30.011 40.33,30.011 L40.33,30.011 Z M106.623,34.402 L50.341,34.402 L50.341,78.408 L106.623,78.408 L106.623,34.402 Z M45.392,49.576 L45.166,49.576 C43.404,49.576 41.977,51.003 41.977,52.764 L41.977,52.764 L41.977,60.047 C41.977,61.807 43.404,63.236 45.166,63.236 L45.166,63.236 L45.392,63.236 L45.392,49.576 Z M115.4,52.258 C113.11,52.258 111.254,54.113 111.254,56.405 C111.254,58.697 113.111,60.552 115.4,60.552 C117.691,60.552 119.548,58.697 119.548,56.405 C119.548,54.113 117.691,52.258 115.4,52.258 Z M91.6539,26 L91.6539,28.758 L68.4969,28.758 L68.4969,26 L91.6539,26 Z" id="Combined-Shape" fill="#363636" fill-rule="nonzero"></path>
    </g>
</svg>