<?xml version="1.0" encoding="UTF-8"?>
<svg width="160px" height="160px" viewBox="0 0 160 160" version="1.1" xmlns="http://www.w3.org/2000/svg" xmlns:xlink="http://www.w3.org/1999/xlink">
    <title>popular-fitness-bracelets</title>
    <g id="popular-fitness-bracelets" stroke="none" stroke-width="1" fill="none" fill-rule="evenodd">
        <rect id="Rectangle" fill="#F7E296" fill-rule="nonzero" x="0" y="0" width="160" height="160"></rect>
        <path d="M125.967,52.074 C129.738,52.94 134.314,54.75 134.314,58.434 L134.314,58.434 L134.314,88.417 C134.314,98.668 122.477,112.85 80.657,112.85 C38.839,112.85 27,98.668 27,88.417 L27,88.417 L27,58.434 C27,54.918 31.17,53.109 34.833,52.2 C34.121,53.611 33.694,55.205 33.694,56.893 L33.694,56.893 L33.694,77.994 C33.694,82.796 37.032,86.838 41.45,88.047 C42.784,91.979 45.276,95.781 49.492,98.326 C56.8666,102.7732 74.1820775,103.154892 79.258694,103.169338 L79.8917713,103.169323 C80.2565342,103.168201 80.503638,103.165366 80.6145912,103.163904 L80.671989,103.163112 L80.671989,103.163112 L80.681,103.163 C80.68174,103.163 80.6847174,103.163039 80.6898961,103.163112 L80.7470939,103.163901 C80.8578065,103.165359 81.1047728,103.168183 81.4694859,103.169291 L82.1025523,103.169281 C87.17953,103.154637 104.5044,102.77235 111.879,98.326 C116.152,95.748 118.605,91.881 119.93,87.894 C124.084,86.521 127.176,82.61 127.176,77.994 L127.176,77.994 L127.176,56.892 C127.176,55.154 126.719,53.515 125.967,52.074 Z M113.084,47.86 C118.648,47.86 123.158,52.372 123.158,57.935 L123.158,57.935 L123.158,76.382 C123.158,81.946 118.648,86.459 113.084,86.459 L113.084,86.459 L47.561,86.459 C41.997,86.459 37.486,81.946 37.486,76.382 L37.486,76.382 L37.486,57.935 C37.486,52.371 41.997,47.86 47.561,47.86 L47.561,47.86 Z M86.888,73.412 C86.021,73.412 85.319,74.114 85.3199989,74.981 C85.3199989,75.845 86.021,76.549 86.888,76.549 C87.753,76.549 88.457,75.846 88.457,74.981 C88.457,74.114 87.753,73.412 86.888,73.412 Z M110.695,73.412 C109.828,73.412 109.127,74.114 109.127,74.981 C109.127,75.845 109.828,76.549 110.695,76.549 C111.562,76.549 112.264,75.846 112.264,74.981 C112.264,74.114 111.562,73.412 110.695,73.412 Z M106.656,73.412 C105.791,73.412 105.088,74.114 105.088,74.981 C105.088,75.845 105.791,76.549 106.656,76.549 C107.523,76.549 108.224,75.846 108.224,74.981 C108.224,74.114 107.523,73.412 106.656,73.412 Z M57.764,73.412 C56.897,73.412 56.196,74.114 56.196,74.981 C56.196,75.845 56.897,76.549 57.764,76.549 C58.631,76.549 59.333,75.846 59.333,74.981 C59.333,74.114 58.631,73.412 57.764,73.412 Z M102.619,73.412 C101.752,73.412 101.05,74.114 101.05,74.981 C101.05,75.845 101.752,76.549 102.619,76.549 C103.484,76.549 104.187,75.846 104.187,74.981 C104.187,74.114 103.484,73.412 102.619,73.412 Z M94.965,73.412 C94.1,73.412 93.396,74.114 93.3969989,74.981 C93.3969989,75.845 94.098,76.549 94.965,76.549 C95.832,76.549 96.533,75.846 96.533,74.981 C96.533,74.114 95.832,73.412 94.965,73.412 Z M90.926,73.412 C90.061,73.412 89.356,74.114 89.3569989,74.981 C89.3569989,75.845 90.061,76.549 90.926,76.549 C91.793,76.549 92.496,75.846 92.496,74.981 C92.496,74.114 91.793,73.412 90.926,73.412 Z M78.598,73.412 C77.731,73.412 77.029,74.114 77.0299989,74.981 C77.0299989,75.845 77.731,76.549 78.598,76.549 C79.465,76.549 80.167,75.846 80.167,74.981 C80.167,74.114 79.465,73.412 78.598,73.412 Z M94.965,69.427 C94.1,69.427 93.396,70.128 93.3969989,70.995 C93.3969989,71.86 94.098,72.564 94.965,72.564 C95.832,72.564 96.533,71.86 96.533,70.995 C96.533,70.128 95.832,69.427 94.965,69.427 Z M78.598,69.427 C77.731,69.427 77.029,70.128 77.0299989,70.995 C77.0299989,71.86 77.731,72.564 78.598,72.564 C79.465,72.564 80.167,71.86 80.167,70.995 C80.167,70.128 79.465,69.427 78.598,69.427 Z M110.695,69.373 C109.828,69.373 109.127,70.076 109.127,70.942 C109.127,71.809 109.828,72.51 110.695,72.51 C111.562,72.51 112.264,71.809 112.264,70.942 C112.264,70.077 111.562,69.373 110.695,69.373 Z M53.3,69.373 C52.435,69.373 51.731,70.076 51.731,70.942 C51.731,71.809 52.435,72.51 53.3,72.51 C54.167,72.51 54.871,71.809 54.871,70.942 C54.871,70.077 54.167,69.373 53.3,69.373 Z M102.619,69.373 C101.752,69.373 101.05,70.076 101.05,70.942 C101.05,71.809 101.752,72.51 102.619,72.51 C103.484,72.51 104.187,71.809 104.187,70.942 C104.187,70.077 103.484,69.373 102.619,69.373 Z M57.764,69.373 C56.897,69.373 56.196,70.076 56.196,70.942 C56.196,71.809 56.897,72.51 57.764,72.51 C58.631,72.51 59.333,71.809 59.333,70.942 C59.333,70.077 58.631,69.373 57.764,69.373 Z M62.018,69.373 C61.15,69.373 60.449,70.076 60.449,70.942 C60.449,71.809 61.151,72.51 62.018,72.51 C62.882,72.51 63.586,71.809 63.586,70.942 C63.586,70.077 62.883,69.373 62.018,69.373 Z M110.695,65.546 C109.828,65.546 109.127,66.248 109.127,67.115 C109.127,67.981 109.828,68.684 110.695,68.684 C111.562,68.684 112.264,67.981 112.264,67.115 C112.264,66.248 111.562,65.546 110.695,65.546 Z M102.619,65.546 C101.752,65.546 101.05,66.248 101.05,67.115 C101.05,67.981 101.752,68.684 102.619,68.684 C103.484,68.684 104.187,67.981 104.187,67.115 C104.187,66.248 103.484,65.546 102.619,65.546 Z M94.965,65.546 C94.1,65.546 93.396,66.248 93.3969989,67.115 C93.3969989,67.981 94.098,68.684 94.965,68.684 C95.832,68.684 96.533,67.981 96.533,67.115 C96.533,66.248 95.832,65.546 94.965,65.546 Z M90.926,65.546 C90.061,65.546 89.356,66.248 89.3569989,67.115 C89.3569989,67.981 90.061,68.684 90.926,68.684 C91.793,68.684 92.496,67.981 92.496,67.115 C92.496,66.248 91.793,65.546 90.926,65.546 Z M86.888,65.546 C86.021,65.546 85.319,66.248 85.3199989,67.115 C85.3199989,67.981 86.021,68.684 86.888,68.684 C87.753,68.684 88.457,67.981 88.457,67.115 C88.457,66.248 87.753,65.546 86.888,65.546 Z M78.598,65.546 C77.731,65.546 77.029,66.248 77.0299989,67.115 C77.0299989,67.981 77.731,68.684 78.598,68.684 C79.465,68.684 80.167,67.981 80.167,67.115 C80.167,66.248 79.465,65.546 78.598,65.546 Z M49.263,65.333 C48.396,65.333 47.694,66.036 47.694,66.903 C47.694,67.769 48.396,68.473 49.263,68.473 C50.128,68.473 50.832,67.769 50.832,66.903 C50.832,66.036 50.128,65.333 49.263,65.333 Z M53.3,65.333 C52.435,65.333 51.731,66.036 51.731,66.903 C51.731,67.769 52.435,68.473 53.3,68.473 C54.167,68.473 54.871,67.769 54.871,66.903 C54.871,66.036 54.167,65.333 53.3,65.333 Z M57.764,65.333 C56.897,65.333 56.196,66.036 56.196,66.903 C56.196,67.769 56.897,68.473 57.764,68.473 C58.631,68.473 59.333,67.769 59.333,66.903 C59.333,66.036 58.631,65.333 57.764,65.333 Z M62.018,65.333 C61.15,65.333 60.449,66.036 60.449,66.903 C60.449,67.769 61.151,68.473 62.018,68.473 C62.882,68.473 63.586,67.769 63.586,66.903 C63.586,66.036 62.883,65.333 62.018,65.333 Z M66.057,65.333 C65.189,65.333 64.486,66.036 64.486,66.903 C64.486,67.769 65.19,68.473 66.057,68.473 C66.922,68.473 67.626,67.769 67.626,66.903 C67.626,66.036 66.922,65.333 66.057,65.333 Z M78.598,61.507 C77.731,61.507 77.029,62.21 77.0299989,63.075 C77.0299989,63.942 77.731,64.644 78.598,64.644 C79.465,64.644 80.167,63.942 80.167,63.075 C80.167,62.21 79.465,61.507 78.598,61.507 Z M110.695,61.507 C109.828,61.507 109.127,62.21 109.127,63.075 C109.127,63.942 109.828,64.644 110.695,64.644 C111.562,64.644 112.264,63.942 112.264,63.075 C112.264,62.21 111.562,61.507 110.695,61.507 Z M74.559,61.507 C73.691,61.507 72.99,62.21 72.99,63.075 C72.99,63.942 73.692,64.644 74.559,64.644 C75.426,64.644 76.127,63.942 76.127,63.075 C76.127,62.21 75.426,61.507 74.559,61.507 Z M86.888,61.507 C86.021,61.507 85.319,62.21 85.3199989,63.075 C85.3199989,63.942 86.021,64.644 86.888,64.644 C87.753,64.644 88.457,63.942 88.457,63.075 C88.457,62.21 87.753,61.507 86.888,61.507 Z M102.619,61.507 C101.752,61.507 101.05,62.21 101.05,63.075 C101.05,63.942 101.752,64.644 102.619,64.644 C103.484,64.644 104.187,63.942 104.187,63.075 C104.187,62.21 103.484,61.507 102.619,61.507 Z M66.057,61.295 C65.189,61.295 64.486,61.998 64.486,62.863 C64.486,63.729 65.19,64.432 66.057,64.432 C66.922,64.432 67.626,63.73 67.626,62.863 C67.626,61.998 66.922,61.295 66.057,61.295 Z M62.018,61.295 C61.15,61.295 60.449,61.998 60.449,62.863 C60.449,63.729 61.151,64.432 62.018,64.432 C62.882,64.432 63.586,63.73 63.586,62.863 C63.586,61.998 62.883,61.295 62.018,61.295 Z M57.764,61.295 C56.897,61.295 56.196,61.998 56.196,62.863 C56.196,63.729 56.897,64.432 57.764,64.432 C58.631,64.432 59.333,63.73 59.333,62.863 C59.333,61.998 58.631,61.295 57.764,61.295 Z M53.3,61.295 C52.435,61.295 51.731,61.998 51.731,62.863 C51.731,63.729 52.435,64.432 53.3,64.432 C54.167,64.432 54.871,63.73 54.871,62.863 C54.871,61.998 54.167,61.295 53.3,61.295 Z M49.263,61.295 C48.396,61.295 47.694,61.998 47.694,62.863 C47.694,63.729 48.396,64.432 49.263,64.432 C50.128,64.432 50.832,63.73 50.832,62.863 C50.832,61.998 50.128,61.295 49.263,61.295 Z M110.695,57.468 C109.828,57.468 109.127,58.17 109.127,59.038 C109.127,59.904 109.828,60.607 110.695,60.607 C111.562,60.607 112.264,59.904 112.264,59.038 C112.264,58.171 111.562,57.468 110.695,57.468 Z M86.888,57.468 C86.021,57.468 85.319,58.17 85.3199989,59.038 C85.3199989,59.904 86.021,60.607 86.888,60.607 C87.753,60.607 88.457,59.904 88.457,59.038 C88.457,58.171 87.753,57.468 86.888,57.468 Z M90.926,57.468 C90.061,57.468 89.356,58.17 89.3569989,59.038 C89.3569989,59.904 90.061,60.607 90.926,60.607 C91.793,60.607 92.496,59.904 92.496,59.038 C92.496,58.171 91.793,57.468 90.926,57.468 Z M94.965,57.468 C94.1,57.468 93.396,58.17 93.3969989,59.038 C93.3969989,59.904 94.098,60.607 94.965,60.607 C95.832,60.607 96.533,59.904 96.533,59.038 C96.533,58.171 95.832,57.468 94.965,57.468 Z M102.619,57.468 C101.752,57.468 101.05,58.17 101.05,59.038 C101.05,59.904 101.752,60.607 102.619,60.607 C103.484,60.607 104.187,59.904 104.187,59.038 C104.187,58.171 103.484,57.468 102.619,57.468 Z M106.656,57.468 C105.791,57.468 105.088,58.17 105.088,59.038 C105.088,59.904 105.791,60.607 106.656,60.607 C107.523,60.607 108.224,59.904 108.224,59.038 C108.224,58.171 107.523,57.468 106.656,57.468 Z M78.598,57.468 C77.731,57.468 77.029,58.17 77.0299989,59.038 C77.0299989,59.904 77.731,60.607 78.598,60.607 C79.465,60.607 80.167,59.904 80.167,59.038 C80.167,58.171 79.465,57.468 78.598,57.468 Z M62.018,57.255 C61.15,57.255 60.449,57.958 60.449,58.825 C60.449,59.69 61.151,60.393 62.018,60.393 C62.882,60.393 63.586,59.691 63.586,58.825 C63.586,57.958 62.883,57.255 62.018,57.255 Z M53.3,57.255 C52.435,57.255 51.731,57.958 51.731,58.825 C51.731,59.69 52.435,60.393 53.3,60.393 C54.167,60.393 54.871,59.691 54.871,58.825 C54.871,57.958 54.167,57.255 53.3,57.255 Z" id="Combined-Shape" fill="#363636" fill-rule="nonzero"></path>
    </g>
</svg>