<?xml version="1.0" encoding="UTF-8"?>
<svg width="13px" height="13px" viewBox="0 0 13 13" version="1.1" xmlns="http://www.w3.org/2000/svg" xmlns:xlink="http://www.w3.org/1999/xlink">
    <title>search-ico</title>
    <g id="search-ico" stroke="none" stroke-width="1" fill="none" fill-rule="evenodd">
        <path d="M5.66671,11 C6.85003,10.9998 7.99924,10.6036 8.93137,9.87466 L11.862,12.8053 L12.8047,11.8627 L9.87404,8.932 C10.6034,7.99977 10.9998,6.85029 11,5.66666 C11,2.726 8.60737,0.333328 5.66671,0.333328 C2.72604,0.333328 0.333374,2.726 0.333374,5.66666 C0.333374,8.60733 2.72604,11 5.66671,11 Z M5.66671,1.66666 C7.87271,1.66666 9.66671,3.46066 9.66671,5.66666 C9.66671,7.87266 7.87271,9.66666 5.66671,9.66666 C3.46071,9.66666 1.66671,7.87266 1.66671,5.66666 C1.66671,3.46066 3.46071,1.66666 5.66671,1.66666 Z" id="Shape" fill="#000000" fill-rule="nonzero"></path>
    </g>
</svg>