<?xml version="1.0" encoding="UTF-8"?>
<svg width="32px" height="32px" viewBox="0 0 32 32" version="1.1" xmlns="http://www.w3.org/2000/svg" xmlns:xlink="http://www.w3.org/1999/xlink">
    <title>twitter-ico</title>
    <g id="twitter-ico" stroke="none" stroke-width="1" fill="none" fill-rule="evenodd" fill-opacity="0.6">
        <path d="M16,31 C13.9687187,31 12.025375,30.6044687 10.1699219,29.8135 C8.31445,29.0224375 6.717775,27.958 5.3798875,26.6200937 C4.04199063,25.2821875 2.97754375,23.6855313 2.18651875,21.830125 C1.39550781,19.974625 1,18.0312812 1,16 C1,13.9687187 1.39550781,12.025375 2.18651875,10.1699219 C2.97754375,8.31445 4.04199063,6.717775 5.3798875,5.3798875 C6.717775,4.04199063 8.31445,2.97754375 10.1699219,2.18651875 C12.025375,1.39550781 13.9687187,1 16,1 C18.0312812,1 19.974625,1.39550781 21.830125,2.18651875 C23.6855313,2.97754375 25.2821875,4.04199063 26.6200937,5.3798875 C27.958,6.717775 29.0224375,8.31445 29.8135,10.1699219 C30.6044687,12.025375 31,13.9687187 31,16 C31,18.0312812 30.6044687,19.974625 29.8135,21.830125 C29.0224375,23.6855313 27.958,25.2821875 26.6200937,26.6200937 C25.2821875,27.958 23.6855313,29.0224375 21.830125,29.8135 C19.974625,30.6044687 18.0312812,31 16,31 Z M24.8183125,8.5 C24.701125,8.55859375 24.5254375,8.6660125 24.2910625,8.82226562 L23.71975,9.203125 L23.1776875,9.49609375 L22.5625,9.70117188 C21.839875,8.9003875 20.951125,8.5 19.8964375,8.5 C17.611375,8.5 16.46875,9.45702813 16.46875,11.3710938 L16.46875,13.0995625 C13.3241875,12.943375 10.9120938,11.791 9.23242188,9.64257812 C8.74414375,10.1503937 8.5,10.7070625 8.5,11.3125 C8.5,12.6015625 8.97851875,13.5781562 9.93554688,14.2421875 C9.81835938,14.2421875 9.65234687,14.2519375 9.4375,14.2714375 C9.22265313,14.2910312 9.05175625,14.2910312 8.9248,14.2714375 C8.79785312,14.2519375 8.65625312,14.2030938 8.5,14.125 C8.5,15.0234063 8.73925937,15.7705 9.21776875,16.3661875 C9.6962875,16.961875 10.3554719,17.3476562 11.1953125,17.5234375 C11.0000313,17.7578125 10.7265625,17.875 10.375,17.875 C10.0625,17.875 9.7890625,17.7870625 9.5546875,17.611375 C9.5546875,18.373 9.92089375,18.9639063 10.6533438,19.3838125 C11.3857187,19.8037188 12.2109063,20.0234687 13.1289062,20.0429688 C12.7773438,20.5703125 12.264625,20.9658438 11.5908438,21.2294687 C10.9169687,21.4931875 10.1992188,21.625 9.4375,21.625 C9.16405938,21.625 8.78808438,21.5566562 8.309575,21.419875 C7.83105625,21.2831875 7.58202812,21.2148438 7.5625,21.2148438 C7.87499687,21.839875 8.51464375,22.3769687 9.48145,22.826125 C10.4482187,23.275375 11.6738125,23.5 13.15825,23.5 C14.4668125,23.5 15.6875313,23.2705 16.8203125,22.8115 C17.9530938,22.3525 18.9199375,21.7421875 19.72075,20.9804688 C20.5214688,20.21875 21.2099688,19.3495938 21.7861563,18.373 C22.3623438,17.3965 22.792,16.3857813 23.0752188,15.3408438 C23.3584375,14.2959062 23.5,13.2655938 23.5,12.25 C23.5,12.2109062 23.6171875,12.1279375 23.8515625,12.001 C24.0859375,11.8740625 24.3594062,11.7031563 24.671875,11.4882812 C24.9843438,11.2734062 25.2187188,11.048875 25.375,10.8145 C24.3203125,10.8145 23.6171875,10.834 23.265625,10.873 C23.94925,10.4629375 24.46675,9.671875 24.8183125,8.5 Z" id="Shape" fill="#FFFFFF" fill-rule="nonzero"></path>
    </g>
</svg>