<?xml version="1.0" encoding="UTF-8"?>
<svg width="171px" height="195px" viewBox="0 0 171 195" version="1.1" xmlns="http://www.w3.org/2000/svg" xmlns:xlink="http://www.w3.org/1999/xlink">
    <title>warranty-ico</title>
    <g id="warranty-ico" stroke="none" stroke-width="1" fill="none" fill-rule="evenodd">
        <g id="warranty-1" transform="translate(0.000000, 1.000000)" fill-rule="nonzero">
            <path d="M78.6941,174.636 C78.5901,174.506 68.1991,161.64 66.0851,158.876 C64.7641,157.149 62.7781,156.198 60.4921,156.198 C57.9321,156.198 55.6561,157.368 54.9801,157.751 L49.4941,160.494 C47.7211,160.015 43.9071,158.544 40.2141,154.226 C36.9301,150.387 36.9531,145.24 37.1281,143.127 L43.0211,137.234 C46.1141,134.517 45.4731,130.718 44.2671,128.803 L44.0481,128.492 C44.0481,128.492 31.1861,112.271 29.3821,109.994 C28.3931,108.745 26.9071,108.056 25.1981,108.056 C22.3491,108.056 19.3191,110.031 18.4421,110.648 C7.55711,118.397 6.85611,125.21 6.81111,125.961 L6.78711,126.375 L6.86111,126.784 C13.2731,162.51 32.8871,177.921 42.3141,185.327 C43.4621,186.228 44.4541,187.008 45.1681,187.633 C51.7311,193.38 58.9301,194 61.7211,194 C64.0961,193.999 66.2011,193.595 67.8101,192.829 C72.1761,190.751 77.2351,184.819 78.6821,183.051 C81.1831,179.992 79.9651,176.452 78.8501,174.843 L78.6941,174.636 Z M64.8011,186.509 C64.3021,186.746 63.2311,187 61.7201,187 C60.1601,187 54.6881,186.666 49.7761,182.368 C48.9221,181.621 47.8631,180.789 46.6371,179.825 C37.9431,172.995 19.9081,158.824 13.8571,126.141 C14.1461,125.162 15.6861,121.203 22.4771,116.37 C23.1291,115.917 23.9851,115.466 24.5961,115.228 C27.4271,118.8 36.0061,129.62 38.0981,132.258 L30.5701,139.785 L30.3671,140.84 C30.2861,141.262 28.4561,151.249 34.8941,158.777 C41.1801,166.126 48.1441,167.444 49.4771,167.633 L50.5591,167.787 L58.2031,163.964 L58.4211,163.846 C58.7021,163.679 59.7561,163.198 60.4921,163.198 C60.5281,163.198 60.5571,163.199 60.5801,163.201 C62.7291,166.001 71.6851,177.098 73.0801,178.825 C73.0811,178.829 73.0821,178.832 73.0841,178.835 C70.5221,181.93 66.9111,185.504 64.8011,186.509 Z" id="Shape" fill="#FFFFFF"></path>
            <path d="M138.85,65.824 C144.362,60.647 146.006,53.849 143.883,45.041 C143.676,44.185 143.035,43.5 142.194,43.239 C141.352,42.977 140.434,43.179 139.78,43.769 L131.559,51.172 C130.121,50.377 127.883,48.721 127.094,45.842 L133.897,39.113 C134.844,38.175 134.889,36.66 134.001,35.667 L133.815,35.46 C133.622,35.244 133.393,35.064 133.137,34.927 C132.977,34.841 129.149,32.811 124.313,32.811 C119.604,32.811 115.454,34.732 112.311,38.367 C106.311,45.305 107.754,53.409 108.768,56.838 L105.28,60.326 L94.9962,51.09 L99.7132,47.824 L79.6712,34.1 L69.0702,44.703 L82.7942,64.744 L86.0602,60.027 L95.2972,70.309 L92.0022,73.603 C90.5022,73.125 88.1192,72.551 85.3392,72.551 C79.9102,72.551 75.1032,74.725 71.3772,78.91 C71.1062,79.239 64.7782,87.075 68.6262,97.531 C68.9102,98.304 69.5572,98.887 70.3552,99.091 C71.1512,99.294 72.0002,99.092 72.6192,98.55 L80.9142,91.291 C82.2372,91.858 84.5362,93.371 85.5732,97.216 L78.1892,104.732 C77.5552,105.377 77.3192,106.314 77.5722,107.182 C77.8252,108.05 78.5262,108.714 79.4072,108.919 C79.5172,108.944 82.1312,109.542 85.5822,109.542 C92.4222,109.542 97.6942,107.271 100.8272,102.975 C104.19,98.362 104.921,93.542 104.821,89.887 L121.038,106.104 L121.21,106.262 C122.731,107.522 125.528,108.987 128.661,108.987 C130.888,108.987 133.286,108.246 135.513,106.163 L141.031,100.647 L141.133,100.543 C146.145,95.185 143.391,88.845 141.233,86.241 L124.288,69.282 C125.315,69.388 126.436,69.463 127.61,69.463 C132.498,69.462 136.279,68.238 138.85,65.824 Z M85.5512,51.978 L82.8172,55.927 L75.5412,45.302 L80.2722,40.57 L90.8972,47.846 L86.9472,50.58 L101.739,63.866 L97.6452,67.959 L98.8362,66.767 L85.5512,51.978 Z M99.1132,85.502 C99.2222,85.815 101.728,93.248 96.7852,100.029 C94.0152,103.827 89.0372,104.555 85.3852,104.541196 L90.0882,99.754 C90.6542,99.178 90.9082,98.363 90.7682,97.567 C88.9772,87.42 81.0232,86.083 80.6852,86.031 C79.9562,85.921 79.2142,86.135 78.6582,86.62 L72.4542,92.048 C71.9322,86.488 74.8672,82.559 75.2132,82.116 C77.9342,79.086 81.3402,77.55 85.3382,77.55 C88.8532,77.55 91.5692,78.761 91.5872,78.77 C92.5402,79.209 93.6632,79.011 94.4052,78.269 L113.405,59.269 C114.13,58.545 114.339,57.453 113.932,56.513 C113.897,56.43 110.438,48.173 116.09,41.637 C118.285,39.098 121.051,37.811 124.311,37.811 C125.541,37.811 126.694,37.994 127.676,38.232 L122.629,43.225 C122.078,43.769 121.811,44.537 121.904,45.305 C122.916,53.605 130.873,56.382 131.211,56.496 C132.066,56.784 133.012,56.59 133.684,55.985 L139.733,50.538 C140.106,55.402 138.713,59.092 135.424,62.18 C133.416,64.067 130.065,64.463 127.606,64.463 C123.917,64.463 120.655,63.598 120.624,63.59 C119.759,63.354 118.829,63.604 118.194,64.243 L99.6942,82.91 C99.0232,83.587 98.8012,84.6 99.1132,85.502 Z M104.434,86.223 C104.444,86.275 104.454,86.327 104.463,86.381 C104.453,86.329 104.443,86.274 104.434,86.223 Z M137.525,97.079 L132.046,102.555 C128.798,105.535 125.146,102.987 124.47,102.468 L105.827,83.823 L120.768,68.748 L118.733,70.801 L137.44,89.507 C137.9,90.099 140.537,93.794 137.525,97.079 Z" id="Shape" fill="#FFFFFF"></path>
            <path d="M105.162,6.00201 C68.7542,6.00201 39.2402,35.516 39.2402,71.924 C39.2402,105.441 64.2602,133.096 96.6382,137.278 L96.6382,163.502 C96.6382,163.502 154.077,142.259 168.607,89.88 C168.685,89.597 168.746,89.342 168.818,89.068 C168.931,88.644 169.043,88.218 169.148,87.791 C169.212,87.528 169.267,87.277 169.326,87.022 C170.463,82.171 171.084,77.121 171.084,71.924 C171.084,35.516 141.57,6.00201 105.162,6.00201 Z M162.51,85.424 L162.504,85.451 L162.498,85.478 L162.469,85.608 C162.43,85.778 162.393,85.947 162.35,86.123 C162.256,86.499 162.159,86.874 162.049,87.284 L161.945,87.684 C161.92,87.792 161.892,87.9 161.863,88.008 C156.299,108.064 143.343,125.708 123.357,140.45 C115.984,145.888 108.949,149.914 103.638,152.625 L103.638,137.277 L103.638,131.123 L97.5342,130.335 C68.2912,126.558 46.2392,101.446 46.2392,71.923 C46.2392,39.433 72.6712,13.001 105.161,13.001 C137.649,13.001 164.083001,39.433 164.083001,71.923 C164.083001,76.432 163.555,80.974 162.51,85.424 Z" id="Shape" fill="#FFFFFF"></path>
            <path d="M55.583,187.998 C52.792,187.998 45.5939,187.378 39.0289,181.634 C38.3149,181.009 37.3229,180.23 36.1749,179.328 C26.749,171.922 7.13395,156.511 0.721949,120.785 L0.647949,120.376 L0.671949,119.962 C0.715949,119.21 1.41795,112.398 12.3029,104.649 C13.1799,104.032 16.2099,102.057 19.0589,102.057 C20.7669,102.057 22.2529,102.745 23.2429,103.995 C25.0469,106.272 37.909,122.493 37.909,122.493 L38.1279,122.804 C39.334,124.719 39.9749,128.518 36.882,131.235 L30.9889,137.128 C30.8139,139.24 30.791,144.388 34.075,148.227 C37.767,152.544 41.582,154.016 43.3549,154.495 L48.841,151.752 C49.5169,151.369 51.7929,150.199 54.353,150.199 C56.639,150.199 58.625,151.15 59.9459,152.877 C62.0599,155.641 72.4499,168.507 72.5549,168.637 L72.7099,168.844 C73.8249,170.453 75.0429,173.993 72.5419,177.052 C71.0949,178.821 66.0369,184.752 61.6699,186.83 C60.063,187.593 57.958,187.997 55.583,187.998 Z M7.71995,120.14 C13.7709,152.823 31.806,166.994 40.5,173.824 C41.726,174.788 42.785,175.62 43.639,176.367 C48.5509,180.665 54.0229,180.999 55.583,180.999 C57.094,180.999 58.165,180.745 58.664,180.508 C60.774,179.503 64.3859,175.929 66.9479,172.834 C66.9469,172.831 66.9449,172.828 66.9439,172.824 C65.5499,171.097 56.5929,160 54.444,157.2 C54.421,157.198 54.3909,157.197 54.3559,157.197 C53.6199,157.197 52.5659,157.678 52.285,157.845 L52.067,157.963 L44.423,161.786 L43.341,161.632 C42.0079,161.443 35.0439,160.124 28.7579,152.776 C22.3199,145.249 24.15,135.261 24.2309,134.839 L24.4339,133.784 L31.9619,126.257 C29.8699,123.618 21.2909,112.799 18.4599,109.227 C17.8489,109.464 16.9929,109.915 16.3409,110.369 C9.54795,115.202 8.00795,119.161 7.71995,120.14 Z" id="Shape" fill="#3A3A3A"></path>
            <path d="M79.443,103.54 C75.991,103.54 73.378,102.942 73.268,102.917 C72.387,102.712 71.685,102.048 71.433,101.18 C71.181,100.312 71.416,99.374 72.05,98.73 L79.434,91.214 C78.397,87.369 76.098,85.857 74.775,85.289 L66.48,92.548 C65.86,93.09 65.012,93.292 64.216,93.089 C63.418,92.886 62.772,92.302 62.487,91.53 C58.639,81.073 64.967,73.237 65.238,72.908 C68.964,68.723 73.771,66.549 79.2,66.549 C81.98,66.549 84.362,67.123 85.863,67.601 L102.629,50.836 C101.616,47.406 100.172,39.302 106.172,32.365 C109.315,28.731 113.465,26.809 118.174,26.809 C123.011,26.809 126.838,28.838 126.999,28.925 C127.254,29.062 127.483,29.242 127.676,29.458 L127.862,29.665 C128.752,30.658 128.707,32.173 127.758,33.111 L120.955,39.84 C121.744,42.719 123.983,44.375 125.42,45.17 L133.642,37.767 C134.296,37.177 135.214,36.975 136.055,37.237 C136.897,37.498 137.538,38.182 137.745,39.039 C139.868,47.848 138.223,54.645 132.712,59.822 C130.142,62.236 126.359,63.46 121.47,63.46 C118.681,63.46 116.146,63.053 114.631,62.746 L98.127,79.399 C98.856,82.58 99.758,90.019 94.688,96.973 C91.555,101.269 86.283,103.54 79.443,103.54 Z M79.247,98.5392245 C82.898,98.554 87.878,97.825 90.647,94.027 C95.591,87.246 93.085,79.813 92.976,79.5 C92.663,78.598 92.885,77.585 93.558,76.907 L112.058,58.24 C112.692,57.601 113.622,57.351 114.488,57.587 C114.518,57.595 117.781,58.46 121.47,58.46 C123.928,58.46 127.281,58.064 129.288,56.177 C132.576,53.089 133.969,49.399 133.597,44.535 L127.548,49.982 C126.876,50.586 125.931,50.781 125.075,50.493 C124.737,50.379 116.78,47.602 115.768,39.302 C115.674,38.534 115.941,37.766 116.492,37.222 L121.539,32.229 C120.558,31.991 119.404,31.808 118.174,31.808 C114.915,31.808 112.15,33.096 109.953,35.634 C104.302,42.17 107.761,50.427 107.796,50.51 C108.201,51.45 107.992,52.543 107.268,53.266 L88.268,72.266 C87.527,73.008 86.403,73.206 85.451,72.767 C85.433,72.759 82.716,71.547 79.201,71.547 C75.203,71.547 71.797,73.083 69.076,76.113 C68.729,76.555 65.794,80.485 66.317,86.045 L72.521,80.617 C73.077,80.131 73.819,79.917 74.548,80.028 C74.885,80.08 82.839,81.417 84.63,91.564 C84.771,92.36 84.518,93.174 83.951,93.751 L79.247,98.5392245 Z" id="Shape" fill="#F0C42E"></path>
            <polygon id="Path" fill="#3A3A3A" points="79.9209 54.025 89.1579 64.307 92.6979 60.766 79.4129 45.976 76.6779 49.925 69.4019 39.301 74.1339 34.569 84.7589 41.845 80.8089 44.579 95.5999 57.865 99.1409 54.324 88.8579 45.088 93.5749 41.822 73.5329 28.098 62.9319 38.701 76.6559 58.742"></polygon>
            <path d="M118.147,63.28 C116.734,63.134 115.507,62.924 114.63,62.746 L112.596,64.799 L131.302,83.505 C131.762,84.097 134.399,87.792 131.386,91.077 L125.908,96.553 C122.66,99.533 119.007,96.985 118.332,96.466 L99.69,77.821 L98.127,79.399 C98.372,80.469 98.632,82.029 98.682,83.884 L114.899,100.102 L115.072,100.26 C116.593,101.52 119.39,102.985 122.522,102.985 C124.75,102.985 127.147,102.244 129.375,100.161 L134.893,94.645 L134.995,94.542 C140.007,89.184 137.252,82.843 135.094,80.239 L118.147,63.28 Z" id="Path" fill="#3A3A3A"></path>
            <path d="M99.0231,7 C131.512,7 157.945,33.432 157.945,65.922 C157.945,70.43 157.416,74.972 156.372,79.422 L156.366,79.449 L156.359,79.476 L156.33,79.606 C156.292,79.776 156.254,79.945 156.212,80.121 C156.118,80.497 156.021,80.872 155.91,81.282 L155.807,81.682 C155.781,81.79 155.753,81.898 155.724,82.006 C150.16,102.062 137.204,119.706 117.218,134.448 C109.845,139.886 102.81,143.912 97.4991,146.623 L97.4991,131.275 L97.4991,125.121 L91.395,124.333 C62.152,120.556 40.1011,95.444 40.1011,65.921 C40.1011,33.432 66.5341,7 99.0231,7 Z M99.0231,0 C62.6161,0 33.1021,29.514 33.1021,65.922 C33.1021,99.439 58.1221,127.094 90.5,131.276 L90.5,157.5 C90.5,157.5 147.939,136.257 162.47,83.878 C162.548,83.595 162.608,83.34 162.68,83.066 C162.794,82.642 162.905,82.216 163.011,81.789 C163.074,81.526 163.13,81.275 163.188,81.02 C164.326,76.169 164.946,71.119 164.946,65.922 C164.946,29.514 135.432,0 99.0231,0 Z" id="Shape" fill="#3A3A3A"></path>
        </g>
    </g>
</svg>